<?xml version="1.0" encoding="utf-8"?>
<!-- Generator: Adobe Illustrator 15.1.0, SVG Export Plug-In . SVG Version: 6.00 Build 0)  -->
<!DOCTYPE svg PUBLIC "-//W3C//DTD SVG 1.1//EN" "http://www.w3.org/Graphics/SVG/1.1/DTD/svg11.dtd">
<svg version="1.1" id="Layer_1" xmlns="http://www.w3.org/2000/svg" xmlns:xlink="http://www.w3.org/1999/xlink" x="0px" y="0px"
	 width="504px" height="504px" viewBox="167.5 57.5 504 504" enable-background="new 167.5 57.5 504 504" xml:space="preserve">
<style>path{fill:#635024;}</style>
<g>
	<path d="M619.826,226.451c-0.078-0.23-0.166-0.475-0.254-0.695c-10.497-31.28-39.57-52.23-72.639-52.23
		c-9.947,0-19.651,1.9-28.876,5.675c-1.189,0.254-2.35,0.67-3.457,1.24c-4.812,2.486-9.835,4.807-15,6.917
		c-8.044-6.762-17.538-12.426-27.893-16.617c-3.3-1.332-6.835-2.012-10.487-2.012c-8.382,0-15.912,3.525-22.546,6.63
		c-4.93,2.305-10.037,4.684-13.675,4.684c-3.648,0-8.75-2.38-13.68-4.685c-6.646-3.104-14.176-6.62-22.542-6.62
		c-3.667,0-7.197,0.68-10.502,2.017c-10.35,4.18-19.843,9.85-27.883,16.602c-5.16-2.11-10.188-4.43-14.996-6.918
		c-1.102-0.568-2.262-0.984-3.452-1.24c-9.23-3.774-18.933-5.674-28.882-5.674c-33.067,0-62.135,20.95-72.637,52.24
		c-0.093,0.22-0.17,0.456-0.255,0.676c-5.82,17.043-8.782,34.8-8.782,52.77c0,99.887,91.34,181.166,203.61,181.166
		c112.275,0,203.62-81.278,203.62-181.167C628.616,261.257,625.653,243.504,619.826,226.451L619.826,226.451z M245.586,233.056
		c0.083-0.19,0.162-0.39,0.23-0.596c7.696-23.937,29.772-40.02,54.928-40.02c8.142,0,16.078,1.704,23.574,5.072
		c0.436,0.19,0.9,0.323,1.356,0.387c5.42,2.756,10.992,5.253,16.676,7.535c-8.676,11.075-13.533,23.96-13.635,37.484l-7.422,73.52
		c-0.02,0.16-0.03,0.342-0.03,0.514c0,43.319,45.495,78.564,101.412,78.564s101.41-35.246,101.41-78.564
		c0-0.17-0.01-0.354-0.028-0.514l-7.417-73.519c-0.112-13.527-4.965-26.414-13.636-37.49c5.675-2.266,11.246-4.763,16.67-7.52
		c0.466-0.068,0.922-0.205,1.362-0.395c7.496-3.37,15.427-5.072,23.574-5.072c25.149,0,47.227,16.083,54.928,40.02
		c0.063,0.2,0.143,0.396,0.226,0.578c5.048,14.938,7.608,30.473,7.608,46.18c0,89.464-82.855,162.248-184.702,162.248
		c-101.842,0-184.702-72.778-184.702-162.248c0.014-15.712,2.575-31.248,7.618-46.16V233.056z M431.776,368.578
		c-2.854,0-5.17,2.315-5.17,5.166v11.357c-1.313,0.05-2.61,0.083-3.927,0.083c-1.856,0-3.693-0.06-5.521-0.138v-11.305
		c0-2.851-2.31-5.166-5.171-5.166c-2.848,0-5.17,2.316-5.17,5.167v10.384c-3.504-0.46-6.946-1.076-10.299-1.825v-13.948
		c0-1.359-0.535-2.684-1.509-3.647c-7.183-7.184-11.13-16.727-11.13-26.87c0-20.95,17.044-37.993,38-37.993
		c20.954,0,38.006,17.038,38.006,37.993c0,10.076-3.905,19.574-10.996,26.737c-0.96,0.975-1.492,2.271-1.492,3.633v14.399
		c-3.414,0.721-6.9,1.308-10.461,1.732v-10.6c0-2.844-2.313-5.16-5.163-5.16H431.776z M386.189,370.43v9.013
		c-32-10.529-54.45-34.438-54.586-62.243l1.258-12.459c9.317,13.205,23.442,24.189,40.74,31.446c-0.03,0.556-0.055,1.094-0.055,1.65
		C373.546,350.009,378.022,361.509,386.189,370.43L386.189,370.43z M457.729,370.268c8.073-8.905,12.494-20.338,12.494-32.432
		c0-0.558-0.015-1.096-0.044-1.65c18.229-7.642,32.86-19.367,42.125-33.478l1.46,14.491c-0.144,28.217-23.262,52.446-56.029,62.718
		v-9.648L457.729,370.268L457.729,370.268z M509.993,284.348c-6.05,17.278-20.98,32.04-41.356,41.221
		c-5.443-20.726-24.338-36.061-46.756-36.061c-22.41,0-41.308,15.334-46.752,36.055c-19.383-8.744-33.91-22.629-40.446-38.87
		l2.62-25.98c2.212,0.76,4.25,0.8,5.218,0.8h0.02c2.595,0,5.454-0.427,8.48-0.892c3.672-0.553,7.833-1.18,12.338-1.18
		c5.61,0,10.786,0.99,15.81,3.02c4.082,1.656,8.694,4.975,13.58,8.486c8.849,6.37,18.875,13.587,29.92,13.587
		c11.036,0,21.063-7.222,29.905-13.577c4.887-3.525,9.503-6.835,13.582-8.495c5.032-2.022,10.203-3.01,15.817-3.01
		c4.5,0,8.66,0.616,12.333,1.18c3.036,0.454,5.9,0.88,8.48,0.88c2.05,0,3.765-0.318,5.253-0.842l2.312,22.894
		c-0.127,0.25-0.26,0.506-0.357,0.785L509.993,284.348z M502.807,251.182c-1.807,0-4.187-0.357-6.938-0.77
		c-3.833-0.577-8.597-1.297-13.875-1.297c-6.967,0-13.405,1.228-19.696,3.774c-5.234,2.115-10.337,5.792-15.742,9.685
		c-7.949,5.712-16.17,11.632-23.872,11.632c-7.711,0-15.933-5.92-23.883-11.643c-5.405-3.894-10.517-7.56-15.746-9.676
		c-6.287-2.55-12.735-3.785-19.687-3.785c-5.278,0-10.05,0.714-13.875,1.3c-2.757,0.413-5.13,0.775-6.943,0.775
		c-1.92,0-2.223-0.396-2.32-0.53c-0.363-0.464-1.195-2.124-1.195-7.274c0-22.99,16.867-44.103,44.02-55.08
		c4.602-1.87,11.03,0.98,17.94,4.202c6.489,3.03,13.84,6.468,21.688,6.468c7.848,0,15.197-3.437,21.684-6.478
		c6.901-3.222,13.33-6.06,17.93-4.2c27.167,10.976,44.038,32.097,44.038,55.09c-0.006,7.804-1.406,7.804-3.53,7.804L502.807,251.182
		z"/>
	<path d="M453.353,339.388c0-7.824-6.369-14.184-14.18-14.184c-7.816,0-14.178,6.363-14.178,14.183
		c0,7.818,6.365,14.174,14.18,14.174C446.983,353.561,453.353,347.205,453.353,339.388L453.353,339.388z M435.33,339.388
		c0-2.125,1.72-3.85,3.844-3.85c2.12,0,3.84,1.729,3.84,3.85s-1.725,3.844-3.84,3.844
		C437.049,343.231,435.33,341.507,435.33,339.388z M404.6,325.205c-7.82,0-14.175,6.363-14.175,14.183
		c0,7.818,6.355,14.174,14.175,14.174c7.817,0,14.178-6.354,14.178-14.174s-6.36-14.184-14.18-14.184L404.6,325.205z M404.6,343.231
		c-2.115,0-3.834-1.729-3.834-3.844c0-2.125,1.724-3.85,3.834-3.85c2.123,0,3.846,1.729,3.846,3.85s-1.723,3.844-3.848,3.844H404.6z
		 M483.566,345.302c-3.246-1.058-6.737,0.744-7.79,4.005c-1.059,3.25,0.739,6.747,4.005,7.794c0.628,0.206,1.265,0.311,1.91,0.311
		c2.625,0,5.037-1.67,5.886-4.314C488.63,349.851,486.837,346.364,483.566,345.302L483.566,345.302z M365.582,345.302
		c-3.246-1.058-6.742,0.744-7.8,4.005c-1.052,3.25,0.745,6.747,4.01,7.794c0.628,0.206,1.264,0.311,1.91,0.311
		c2.62,0,5.04-1.67,5.886-4.314C370.64,349.851,368.848,346.364,365.582,345.302z"/>
</g>
</svg>
