<?xml version="1.0" encoding="utf-8"?>
<!-- Generator: Adobe Illustrator 15.1.0, SVG Export Plug-In . SVG Version: 6.00 Build 0)  -->
<!DOCTYPE svg PUBLIC "-//W3C//DTD SVG 1.1//EN" "http://www.w3.org/Graphics/SVG/1.1/DTD/svg11.dtd">
<svg version="1.1" id="Layer_1" xmlns="http://www.w3.org/2000/svg" xmlns:xlink="http://www.w3.org/1999/xlink" x="0px" y="0px"
	 width="504px" height="504px" viewBox="144 54 504 504" enable-background="new 144 54 504 504" xml:space="preserve">
<style>path{fill:#635024;}</style>
<path d="M503.696,331.118c-2.992-0.073-5.567,2.458-5.593,5.493c-0.02,3.064,2.459,5.537,5.532,5.508
	c3.085-0.043,5.49-2.535,5.425-5.615C508.999,333.581,506.615,331.188,503.696,331.118L503.696,331.118z M462.688,264.08
	l-37.391-37.63c-1.26-1.278-2.978-1.988-4.77-1.998c-1.782,0.093-3.511,0.705-4.788,1.963l-21.96,21.812
	c-2.638,2.63-2.653,6.903-0.023,9.552l37.385,37.634c1.265,1.268,2.982,1.988,4.774,1.993h0.024c1.781,0,3.494-0.71,4.76-1.958
	l21.947-21.818c2.649-2.623,2.664-6.902,0.039-9.55H462.688z M435.965,281.1l-27.857-28.045l12.377-12.3l27.854,28.05L435.965,281.1
	L435.965,281.1z"/>
<path d="M524.264,309.85c4.833-1.527,9.387-4.162,13.23-7.962c3.7-3.687,3.729-9.674,0.048-13.38
	c-3.688-3.707-9.675-3.722-13.38-0.045c-4.334,4.31-13.271,5.67-17.533,1.4c-4.266-4.26-2.396-10.796,0.7-15.34
	c1.575-2.53,2.432-5.468,2.439-8.494c0.011-4.31-1.683-8.437-4.71-11.487L374.02,122.636l6.126-6.08
	c3.706-3.688,3.726-9.68,0.05-13.372c-3.683-3.706-9.676-3.736-13.382-0.044l-6.12,6.08l-4.77-4.802
	c-3.172-3.192-7.338-4.783-11.495-4.783c-4.138,0-8.27,1.566-11.433,4.705l-35.76,35.53c-3.06,3.03-4.784,7.148-4.8,11.447
	c-0.014,4.3,1.685,8.426,4.716,11.477l66.41,66.85l-9.328,9.258c-6.35,6.31-6.39,16.578-0.08,22.928l29.22,29.42
	c-4.18,7.805-6.404,16.575-6.438,25.682c-0.04,14.684,5.63,28.514,15.976,38.934c10.404,10.463,24.26,16.229,39.012,16.229
	c1.59,0,3.177-0.073,4.76-0.205c0.033,0.581,0.005,1.136-0.05,1.674c-1.22,12.343-20.676,30.77-33.444,39.33
	c-4.011,2.696-6.614,7.045-7.091,11.861c-0.483,4.818,1.221,9.603,4.628,13.028l71.717,72.2c3.157,3.17,7.324,4.785,11.51,4.785
	c3.575,0,7.17-1.17,10.146-3.556c2.301-1.859,56.5-46.031,60.178-111.109C556.043,368.837,545.928,338.58,524.264,309.85
	L524.264,309.85z M374.96,250.696l15.07-14.972c1.533-1.518,2.394-3.57,2.4-5.718c0.01-2.16-0.838-4.216-2.35-5.748l-72.124-72.593
	l24.26-24.103L480.67,266.93c-6.854,11.74-5.46,27.006,4.167,37.342l-28.51,28.326L374.96,250.696L374.96,250.696z M408.01,338.978
	c-10.225-10.23-11.512-25.178-4.819-36.86l21.848,22l-6.174,6.135c-3.173,3.153-3.188,8.274-0.034,11.462
	c1.586,1.593,3.677,2.396,5.752,2.396c2.066,0,4.133-0.793,5.714-2.36l6.174-6.13l8.354,8.412
	C444.816,344.024,424.953,355.921,408.01,338.978L408.01,338.978z M527.77,399.691c-0.899,14.145-4.816,27.227-10.114,38.845
	c-0.16-0.02-0.318-0.05-0.484-0.05c-2.96,0-5.336,2.272-5.463,5.22c-0.074,1.533,0.465,2.914,1.375,3.938
	c-1.938,3.51-3.945,6.869-6.017,10.02c-0.711-2.144-2.732-3.803-5.077-3.866c-3.057-0.09-5.582,2.335-5.62,5.404
	c-0.04,3.125,2.35,5.56,5.453,5.544c0.12,0,0.239-0.03,0.357-0.034c-7.6,10.384-15.177,18.257-20.072,22.923l-59.653-60.06
	c10.037-7.883,26.468-22.722,33.278-39.765c0.606,0.215,1.264,0.332,1.964,0.321c3.1-0.083,5.415-2.56,5.325-5.684
	c-0.077-2.68-1.968-4.793-4.504-5.195c0.051-0.347,0.122-0.693,0.156-1.04c0.74-7.447-0.97-14.521-4.905-20.857
	c1.038,1.233,2.58,2.109,4.181,2.135c2.987,0.034,5.52-2.492,5.515-5.523c0-2.124-1.058-3.843-2.698-4.729l7.894-7.843
	c0.926,1.626,2.634,2.714,4.689,2.728c3.045,0.021,5.509-2.496,5.464-5.576c-0.022-1.947-1.096-3.651-2.651-4.606l7.848-7.794
	c0.872,1.504,2.458,2.463,4.446,2.521c3.206,0.104,5.61-2.1,5.688-5.22c0.068-2.08-0.964-3.833-2.59-4.787l2.497-2.482
	c9.46,10.75,16.926,21.688,22.443,32.755c-2.105,0.76-3.5,2.696-3.467,5.109c0.04,2.943,2.403,5.347,5.342,5.42
	c0.896,0.03,1.758-0.21,2.536-0.605c5,12.833,7.335,25.842,7.029,38.954c-0.307,0.77-0.482,1.609-0.425,2.525
	c0.034,0.49,0.123,0.931,0.266,1.36L527.77,399.691z"/>
<path d="M471.666,453.798c-3.01-0.045-5.605,2.511-5.586,5.503c0.023,2.934,2.364,5.336,5.287,5.44
	c3.158,0.105,5.597-2.17,5.67-5.304C477.115,456.313,474.761,453.852,471.666,453.798L471.666,453.798z M487.373,407.766
	c-3.03-0.006-5.514,2.529-5.48,5.604c0.03,2.932,2.376,5.302,5.318,5.365c3.135,0.088,5.597-2.268,5.637-5.356
	c0.04-3.075-2.43-5.6-5.474-5.615L487.373,407.766z M486.49,469.201c-3.117,0.004-5.53,2.428-5.492,5.512
	c0.04,2.885,2.443,5.342,5.313,5.431c3.065,0.104,5.543-2.307,5.598-5.415c0.038-3.208-2.248-5.528-5.416-5.528L486.49,469.201z
	 M472.063,423.201c-3.09-0.004-5.315,2.11-5.443,5.15c-0.123,3.192,2.12,5.666,5.22,5.75c3.073,0.093,5.61-2.313,5.678-5.372
	C477.58,425.649,475.157,423.202,472.063,423.201L472.063,423.201z M487.632,377.161c-3.03,0.082-5.479,2.717-5.336,5.723
	c0.146,2.885,2.62,5.253,5.519,5.253c3.034,0.006,5.503-2.525,5.453-5.596C493.214,379.427,490.746,377.081,487.632,377.161
	L487.632,377.161z M518.325,377.161c-3.104-0.152-5.616,2.173-5.725,5.277c-0.105,3.094,2.292,5.635,5.349,5.692
	c3,0.056,5.596-2.472,5.609-5.479C523.589,379.77,521.225,377.298,518.325,377.161L518.325,377.161z M457.184,407.761
	c-3.006-0.023-5.492,2.513-5.487,5.566c0.015,3.025,2.213,5.303,5.225,5.405c3.134,0.118,5.616-2.207,5.675-5.297
	c0.063-3.055-2.42-5.654-5.41-5.674L457.184,407.761z M502.095,423.201c-2.977,0.07-5.258,2.37-5.297,5.343
	c-0.035,3.094,2.403,5.57,5.47,5.558c3.099-0.016,5.508-2.453,5.464-5.558C507.691,425.424,505.273,423.124,502.095,423.201
	L502.095,423.201z M502.62,392.529c-3.14,0.03-5.49,2.457-5.406,5.58c0.068,2.93,2.447,5.25,5.405,5.29
	c3.137,0.038,5.492-2.304,5.492-5.445c0-3.207-2.287-5.46-5.493-5.425H502.62z M488.127,346.575c-3.168,0.054-5.39,2.403-5.298,5.61
	c0.087,2.924,2.5,5.308,5.395,5.326c2.996,0.021,5.537-2.55,5.503-5.569C493.697,348.822,491.293,346.517,488.127,346.575
	L488.127,346.575z M472.93,361.797c-2.968,0.005-5.605,2.648-5.543,5.566c0.07,2.933,2.414,5.283,5.356,5.342
	c3.173,0.083,5.597-2.203,5.62-5.313C478.408,364.344,475.931,361.788,472.93,361.797L472.93,361.797z M441.63,423.201
	c-2.942,0.09-5.327,2.483-5.355,5.372c-0.03,2.986,2.546,5.542,5.575,5.527c3.091-0.017,5.444-2.45,5.4-5.593
	C447.196,425.355,444.813,423.104,441.63,423.201z M456.94,438.511c-3.08-0.13-5.65,2.216-5.765,5.28c-0.1,3,2.384,5.59,5.425,5.635
	c3.12,0.051,5.567-2.346,5.554-5.443C462.149,440.995,459.907,438.646,456.94,438.511L456.94,438.511z M517.654,407.761
	c-3-0.034-5.522,2.503-5.532,5.548c0,2.977,2.262,5.313,5.253,5.42c3.163,0.122,5.582-2.154,5.655-5.288
	C523.094,410.364,520.65,407.794,517.654,407.761L517.654,407.761z M503.05,361.816c-3.109,0.083-5.386,2.52-5.308,5.664
	c0.093,3.133,2.497,5.346,5.685,5.22c2.952-0.108,5.22-2.474,5.22-5.43C508.646,364.292,506.041,361.747,503.05,361.816
	L503.05,361.816z M486.844,438.501c-2.962,0.057-5.292,2.38-5.355,5.318c-0.063,3.104,2.326,5.59,5.386,5.609
	c3.085,0.021,5.567-2.423,5.562-5.478C492.416,440.901,489.889,438.438,486.844,438.501L486.844,438.501z M472.592,392.559
	c-3.05-0.04-5.386,2.095-5.543,5.058c-0.167,3.152,2.075,5.654,5.18,5.77c3.144,0.131,5.62-2.146,5.711-5.241
	C478.019,394.981,475.733,392.594,472.592,392.559L472.592,392.559z M248.345,298.94c1.846,1.847,4.27,2.767,6.688,2.767
	c2.43,0,4.847-0.92,6.693-2.766l14.713-14.726l14.71,14.727c1.847,1.847,4.275,2.767,6.7,2.767c2.417,0,4.84-0.92,6.682-2.766
	c3.692-3.69,3.692-9.688,0-13.38l-14.717-14.717l14.717-14.717c3.692-3.692,3.692-9.68,0-13.376c-3.687-3.692-9.684-3.692-13.38,0
	l-14.708,14.717l-14.718-14.722c-3.69-3.692-9.684-3.692-13.37,0c-3.698,3.696-3.698,9.684,0,13.376l14.71,14.718l-14.72,14.717
	c-3.693,3.696-3.693,9.694,0,13.386V298.94z M347.558,321.586c-3.692-3.696-9.685-3.696-13.37,0l-14.718,14.713l-14.717-14.713
	c-3.692-3.696-9.68-3.696-13.37,0c-3.692,3.69-3.692,9.681,0,13.37l14.716,14.718l-14.73,14.728c-3.69,3.682-3.69,9.68,0,13.37
	c1.847,1.837,4.275,2.762,6.694,2.762c2.414,0,4.842-0.925,6.688-2.76l14.717-14.73l14.716,14.73c1.846,1.835,4.274,2.76,6.688,2.76
	s4.837-0.925,6.683-2.76c3.69-3.697,3.69-9.69,0-13.372l-14.717-14.729l14.717-14.717c3.692-3.69,3.692-9.68,0-13.37H347.558z
	 M304.53,400.421c-3.695-3.695-9.683-3.695-13.38,0l-14.71,14.729l-14.714-14.729c-3.69-3.689-9.684-3.689-13.37,0
	c-3.698,3.697-3.698,9.69-0.006,13.37l14.722,14.73l-14.722,14.716c-3.692,3.691-3.692,9.685,0,13.37
	c1.846,1.852,4.27,2.776,6.688,2.776c2.43,0,4.842-0.926,6.688-2.775l14.718-14.723l14.712,14.723
	c1.846,1.85,4.274,2.775,6.693,2.775c2.422,0,4.846-0.926,6.682-2.775c3.697-3.69,3.697-9.685,0.005-13.37l-14.717-14.718
	l14.717-14.73C308.222,410.104,308.222,404.117,304.53,400.421L304.53,400.421z"/>
</svg>
