<?xml version="1.0" encoding="utf-8"?>
<!-- Generator: Adobe Illustrator 15.1.0, SVG Export Plug-In . SVG Version: 6.00 Build 0)  -->
<!DOCTYPE svg PUBLIC "-//W3C//DTD SVG 1.1//EN" "http://www.w3.org/Graphics/SVG/1.1/DTD/svg11.dtd">
<svg version="1.1" xmlns="http://www.w3.org/2000/svg" xmlns:xlink="http://www.w3.org/1999/xlink" x="0px" y="0px"
	 width="109.848px" height="104.357px" viewBox="0 0 109.848 104.357" enable-background="new 0 0 109.848 104.357"
	 xml:space="preserve">
<g id="Layer_1">
	<g>
		<g>
			
				<linearGradient id="SVGID_1_" gradientUnits="userSpaceOnUse" x1="-1025.0759" y1="589.071" x2="-1025.0759" y2="482.9077" gradientTransform="matrix(1 0 0 1 1080 -506.6426)">
				<stop  offset="0" style="stop-color:#C54F39"/>
				<stop  offset="1" style="stop-color:#D16940"/>
			</linearGradient>
			<polygon fill="url(#SVGID_1_)" points="54.924,2.83 54.924,2.83 54.923,2.83 54.917,2.832 0,26.059 0,104.403 54.923,104.406 
				54.923,104.406 54.924,104.406 54.929,104.403 109.848,104.403 109.848,26.059 			"/>
		</g>
	</g>
	<g>
		<g>
			<path fill="#F4F5F5" d="M91.047,35.608L54.898,19.195L18.803,35.609l-0.042-0.025v0.043v3.167v28.907l2.984,1.375V53.554
				l28.847,12.989v15.839l3.066,1.414V63.775L21.745,50.071V37.405l33.152-15.431l33.206,15.433v12.665L56.191,63.775v20.021
				l34.896-16.096V38.794v-3.167v-0.043L91.047,35.608z M88.105,65.145L59.259,78.851V66.544l28.846-12.989V65.145z"/>
		</g>
		<g>
			<polygon opacity="0.55" fill="#F4F5F5" points="24.301,67.106 24.301,70.256 48.036,81.197 48.036,78.303 			"/>
		</g>
	</g>
</g>
<g id="Layer_2" display="none">
	<g display="inline">
		<path fill="#AE352C" d="M61.132,48.853v25.959h-6.23V64.725h-9.715v10.088h-6.229v-25.96h6.229v10.05h9.715v-10.05H61.132z"/>
	</g>
	<g display="inline">
		<g>
			<path fill="#F5F5F5" d="M62.274,47.66v25.96h-6.229V63.532H46.33V73.62H40.1V47.66h6.229v10.05h9.715V47.66H62.274z"/>
		</g>
		<g opacity="0.75">
			<path fill="#F5F5F5" d="M66.912,56.262l1.427-0.188c0.163,0.807,0.441,1.391,0.836,1.746c0.395,0.354,0.874,0.535,1.439,0.535
				c0.673,0,1.235-0.231,1.699-0.696c0.461-0.467,0.691-1.041,0.691-1.729c0-0.655-0.212-1.194-0.641-1.622
				c-0.431-0.426-0.976-0.638-1.635-0.638c-0.27,0-0.604,0.052-1.007,0.159l0.158-1.254c0.095,0.011,0.172,0.016,0.229,0.016
				c0.609,0,1.156-0.157,1.645-0.476c0.487-0.318,0.729-0.807,0.729-1.467c0-0.522-0.178-0.956-0.53-1.3
				c-0.354-0.345-0.812-0.516-1.37-0.516c-0.558,0-1.02,0.173-1.389,0.522c-0.367,0.35-0.607,0.872-0.714,1.569l-1.427-0.254
				c0.174-0.956,0.569-1.697,1.188-2.223c0.616-0.526,1.386-0.79,2.306-0.79c0.635,0,1.219,0.136,1.754,0.409
				c0.533,0.271,0.941,0.643,1.224,1.112c0.283,0.47,0.427,0.969,0.427,1.499c0,0.501-0.138,0.96-0.405,1.37
				c-0.271,0.414-0.669,0.741-1.196,0.983c0.688,0.158,1.22,0.487,1.604,0.986c0.38,0.499,0.567,1.124,0.567,1.875
				c0,1.016-0.37,1.873-1.106,2.581c-0.74,0.704-1.678,1.059-2.809,1.059c-1.02,0-1.865-0.305-2.541-0.915
				C67.391,58.017,67.006,57.229,66.912,56.262z"/>
		</g>
	</g>
</g>
</svg>
