<?xml version="1.0" encoding="utf-8"?>
<!-- Generator: Adobe Illustrator 15.1.0, SVG Export Plug-In . SVG Version: 6.00 Build 0)  -->
<!DOCTYPE svg PUBLIC "-//W3C//DTD SVG 1.1//EN" "http://www.w3.org/Graphics/SVG/1.1/DTD/svg11.dtd">
<svg version="1.1" id="Layer_1" xmlns="http://www.w3.org/2000/svg" xmlns:xlink="http://www.w3.org/1999/xlink" x="0px" y="0px"
	 width="182px" height="174px" viewBox="0 0 182 174" enable-background="new 0 0 182 174" xml:space="preserve">
<g>
	<path fill="none" stroke="#BDB0AA" stroke-width="6.2771" stroke-miterlimit="10" d="M134.71,120.184
		c5.992-10.373,19.255-13.926,29.632-7.939c0.158,0.09,0.296,0.195,0.446,0.289c7.215-31.039-6.22-64.42-35.254-81.181
		c-5.012-2.892-10.225-5.113-15.532-6.734c0.015,0.332,0.051,0.659,0.051,0.992c0,11.979-9.707,21.688-21.689,21.688
		c-11.974,0-21.687-9.71-21.687-21.688c0-0.329,0.036-0.651,0.05-0.978c-17.404,5.293-32.922,16.934-42.736,33.93
		c-9.815,16.99-12.132,36.241-8.021,53.954c0.144-0.086,0.274-0.188,0.417-0.271c10.376-5.988,23.641-2.434,29.631,7.939
		c5.991,10.373,2.433,23.637-7.935,29.625c-0.158,0.088-0.318,0.154-0.461,0.236c4.053,3.777,8.575,7.178,13.572,10.066
		c29.033,16.756,64.662,11.707,87.933-10.057c-0.157-0.09-0.315-0.154-0.475-0.246C132.278,143.822,128.728,130.557,134.71,120.184z
		"/>
	<path fill="none" stroke="#BDB0AA" stroke-width="6.2771" stroke-miterlimit="10" d="M114.002,24.618
		c-0.518-11.512-9.994-20.696-21.639-20.696c-11.642,0-21.119,9.189-21.637,20.71"/>
	<path fill="none" stroke="#BDB0AA" stroke-width="6.2771" stroke-miterlimit="10" d="M70.727,24.632
		c-0.015,0.327-0.05,0.649-0.05,0.978c0,11.979,9.713,21.688,21.687,21.688c11.982,0,21.689-9.71,21.689-21.688
		c0-0.333-0.036-0.66-0.051-0.992"/>
	<path fill="none" stroke="#BDB0AA" stroke-width="6.2771" stroke-miterlimit="10" d="M143.128,150.055
		c10.299,5.615,23.251,2.037,29.156-8.184c5.898-10.219,2.521-23.225-7.496-29.338"/>
	<path fill="none" stroke="#BDB0AA" stroke-width="6.2771" stroke-miterlimit="10" d="M164.788,112.533
		c-0.15-0.094-0.288-0.199-0.446-0.289c-10.377-5.986-23.64-2.434-29.632,7.939c-5.982,10.373-2.432,23.639,7.943,29.625
		c0.159,0.092,0.317,0.156,0.475,0.246"/>
	<path fill="none" stroke="#BDB0AA" stroke-width="6.2771" stroke-miterlimit="10" d="M19.97,112.516
		c-10.039,6.107-13.423,19.131-7.518,29.354c5.897,10.225,18.865,13.805,29.171,8.176"/>
	<path fill="none" stroke="#BDB0AA" stroke-width="6.2771" stroke-miterlimit="10" d="M41.623,150.045
		c0.143-0.082,0.303-0.148,0.461-0.236c10.367-5.988,13.926-19.252,7.935-29.625c-5.991-10.373-19.255-13.928-29.631-7.939
		c-0.143,0.084-0.273,0.186-0.417,0.271"/>
</g>
</svg>
