<?xml version="1.0" encoding="utf-8"?>
<!-- Generator: Adobe Illustrator 15.1.0, SVG Export Plug-In . SVG Version: 6.00 Build 0)  -->
<!DOCTYPE svg PUBLIC "-//W3C//DTD SVG 1.1//EN" "http://www.w3.org/Graphics/SVG/1.1/DTD/svg11.dtd">
<svg version="1.1" id="Layer_1" xmlns="http://www.w3.org/2000/svg" xmlns:xlink="http://www.w3.org/1999/xlink" x="0px" y="0px"
	 width="504px" height="504px" viewBox="144 54 504 504" enable-background="new 144 54 504 504" xml:space="preserve">
<style>path{fill:#635024;}</style>
<path d="M419.165,197.797c2.375,0,4.734-0.965,6.414-2.664c1.654-1.684,2.618-3.99,2.618-6.375c0-2.39-0.964-4.7-2.62-6.385
	c-3.367-3.378-9.424-3.378-12.797,0c-1.685,1.685-2.648,3.99-2.648,6.385c0,2.38,0.966,4.69,2.65,6.375
	C414.465,196.833,416.813,197.797,419.165,197.797z M419.165,233.42c5,0,9.033-4.04,9.033-9.038s-4.034-9.033-9.033-9.033
	c-4.974,0-9.038,4.033-9.038,9.032S414.197,233.419,419.165,233.42L419.165,233.42z M419.165,304.71c5,0,9.033-4.044,9.033-9.037
	c0-5.004-4.034-9.038-9.033-9.038c-4.974,0-9.038,4.03-9.038,9.038C410.132,300.666,414.197,304.711,419.165,304.71L419.165,304.71z
	 M419.165,269.082c5,0,9.033-4.073,9.033-9.037c0-5.004-4.034-9.04-9.033-9.04c-4.974,0-9.038,4.03-9.038,9.04
	C410.132,265.009,414.197,269.082,419.165,269.082z M419.165,340.334c2.375,0,4.734-0.96,6.414-2.645
	c1.654-1.66,2.618-4.006,2.618-6.386s-0.964-4.705-2.62-6.39c-3.4-3.35-9.424-3.35-12.797,0c-1.685,1.685-2.648,4.006-2.648,6.39
	c0,2.374,0.966,4.726,2.65,6.385c1.683,1.68,4.03,2.644,6.383,2.644V340.334z"/>
<path d="M458.77,115.06v-9.612c0-8.318-6.731-15.05-15.05-15.05h-24.535c-8.317,0-15.06,6.732-15.06,15.05v3.374
	c-54.566,7.388-96.765,54.267-96.765,110.81c0,0.862,0.068,1.734,0.226,2.586L327.4,335.82c-0.02,2.017-0.118,4.022-0.26,6.007
	c-3.717,49.92-45.89,89.04-96.03,89.04c-8.318,0-15.05,6.745-15.05,15.06v41.008c0,8.313,6.73,15.061,15.05,15.061h160.623
	c3.158,0,6.229-0.988,8.783-2.824l28.139-20.195v7.96c0,4.017,1.6,7.87,4.455,10.7c2.823,2.8,6.628,4.366,10.607,4.366h0.117
	l52.182-0.425c8.266-0.064,14.943-6.786,14.943-15.061V341.38l19.833-119.276c0.133-0.813,0.206-1.64,0.206-2.468
	c0-47.893-36.784-90.586-72.23-104.58L458.77,115.06z M426.705,112.974h9.474v46.65c-3.109-0.858-6.268-1.54-9.475-2.043
	L426.705,112.974L426.705,112.974z M411.641,130.736v33.567c0,1.988,0.805,3.92,2.221,5.322c1.275,1.292,2.979,2.066,4.792,2.193
	c6.003,0.426,11.868,1.63,17.521,3.58v197.827c-15.178-22.031-40.514-36.51-69.186-36.51h-17.086
	c0.014-0.725,0.088-1.42,0.088-2.145c0-0.437-0.04-0.872-0.107-1.298l-19.94-114.28c0.33-46.366,36.228-84.432,81.699-88.256
	H411.641z M389.315,479.404H238.63v-26.188c43.452-2.77,81.132-29.303,99.468-66.962h28.896c23.893,0,44.925,12.205,57.332,30.688
	c-4.084,4.529-6.605,10.52-6.605,17.102c0,7.521,3.28,14.23,8.438,18.91L389.315,479.404z M366.995,371.188h-22.807
	c2.037-6.252,3.555-12.75,4.52-19.416h18.28c32.374,0,59.621,22.468,67.018,52.672c-15.397-20.2-39.706-33.254-67.01-33.254
	L366.995,371.188z M443.367,444.624c-5.836,0-10.575-4.75-10.575-10.58c0-5.817,4.74-10.566,10.576-10.566
	c5.819,0,10.569,4.75,10.569,10.565C453.938,439.879,449.19,444.623,443.367,444.624L443.367,444.624z M488.367,479.054
	l-37.127,0.303v-20.944c10.279-3.351,17.747-12.965,17.747-24.363c0-7.673-3.408-14.552-8.771-19.267
	c6.519-11.32,16.235-20.646,28.147-26.78v91.05L488.367,479.054z M488.367,371.359c-14.698,5.958-27.101,15.744-36.147,28.023
	c4.11-20.588,17.4-38.238,36.146-47.88v19.855L488.367,371.359z M489.174,334.629c-15.613,6.17-28.67,16.646-37.934,29.83V170.79
	c0.022-0.352,0.022-0.714,0-1.086v-33.332c27.573,11.33,56.832,46.63,57.16,82.654L489.174,334.629L489.174,334.629z"/>
</svg>
