<?xml version="1.0" encoding="utf-8"?>
<!-- Generator: Adobe Illustrator 15.1.0, SVG Export Plug-In . SVG Version: 6.00 Build 0)  -->
<!DOCTYPE svg PUBLIC "-//W3C//DTD SVG 1.1//EN" "http://www.w3.org/Graphics/SVG/1.1/DTD/svg11.dtd">
<svg version="1.1" id="Layer_1" xmlns="http://www.w3.org/2000/svg" xmlns:xlink="http://www.w3.org/1999/xlink" x="0px" y="0px"
	 width="504px" height="504px" viewBox="144 54 504 504" enable-background="new 144 54 504 504" xml:space="preserve">
<style>path{fill:#635024;}</style>
<path d="M402.789,449.12c-4.67-1.53-9.698,1.072-11.222,5.768c-1.507,4.666,1.083,9.695,5.784,11.218
	c0.89,0.3,1.807,0.439,2.729,0.439c3.775,0,7.267-2.4,8.47-6.208c1.53-4.676-1.056-9.693-5.76-11.217H402.789z M531.559,248.835
	c0.418,0,0.834-0.024,1.273-0.083c4.88-0.69,8.271-5.205,7.6-10.09c-0.72-4.873-5.25-8.275-10.115-7.59
	c-4.896,0.725-8.271,5.244-7.601,10.125l0.035-0.03C523.368,245.627,527.177,248.835,531.559,248.835L531.559,248.835z
	 M534.374,355.905c-4.67-1.522-9.694,1.071-11.212,5.768c-1.513,4.676,1.077,9.705,5.777,11.217c0.892,0.301,1.812,0.45,2.736,0.45
	c3.774,0,7.256-2.41,8.471-6.218C541.664,362.456,539.084,357.429,534.374,355.905L534.374,355.905z M528.846,302.77
	c0.228,4.793,4.167,8.515,8.917,8.515c0.127,0,0.278,0,0.42-0.034c4.91-0.21,8.717-4.396,8.48-9.313
	c-0.215-4.935-4.406-8.744-9.308-8.503C532.415,293.672,528.6,297.863,528.846,302.77L528.846,302.77z M529.556,178.156
	c0-2.345-0.949-4.64-2.603-6.31c-3.37-3.34-9.322-3.306-12.643,0c-1.68,1.664-2.634,3.96-2.634,6.31c0,2.35,0.955,4.67,2.636,6.306
	c1.653,1.665,3.979,2.614,6.324,2.614c2.32,0,4.646-0.945,6.316-2.614c1.65-1.67,2.604-3.96,2.604-6.306H529.556z M494.364,412.67
	c-15.7,16.354-35.413,28.41-56.99,34.845c-3.936,1.166-6.173,5.308-4.998,9.248c0.965,3.224,3.917,5.318,7.118,5.318
	c0.715,0,1.43-0.104,2.14-0.313c24.03-7.172,45.983-20.577,63.452-38.795c2.854-2.963,2.757-7.668-0.215-10.518
	C501.924,409.611,497.214,409.709,494.364,412.67L494.364,412.67z M270,231.072c-4.872-0.687-9.396,2.717-10.115,7.59
	c-0.676,4.885,2.72,9.4,7.598,10.09c0.44,0.06,0.857,0.083,1.283,0.083c4.368,0,8.172-3.207,8.804-7.667l0.034,0.03
	C278.269,236.316,274.881,231.798,270,231.072L270,231.072z M265.926,355.905c-4.7,1.522-7.28,6.55-5.77,11.217
	c1.223,3.805,4.7,6.22,8.47,6.22c0.92,0,1.845-0.152,2.746-0.452c4.705-1.512,7.285-6.54,5.777-11.217
	C275.621,356.978,270.592,354.388,265.926,355.905L265.926,355.905z M262.543,311.283c4.76,0,8.68-3.716,8.92-8.514
	c0.245-4.908-3.574-9.099-8.51-9.338c-4.9-0.24-9.1,3.57-9.306,8.504c-0.244,4.909,3.57,9.102,8.486,9.312
	C262.27,311.282,262.417,311.282,262.543,311.283L262.543,311.283z M286.01,171.845c-3.34-3.305-9.283-3.34-12.65,0
	c-1.65,1.665-2.6,3.96-2.6,6.31c0,2.35,0.95,4.638,2.6,6.307c1.673,1.665,3.99,2.614,6.31,2.614c2.345,0,4.67-0.945,6.34-2.614
	c1.675-1.635,2.615-3.96,2.615-6.306C288.625,175.81,287.679,173.51,286.01,171.845L286.01,171.845z M362.926,447.515
	c-21.567-6.434-41.273-18.491-56.995-34.846c-2.84-2.962-7.55-3.06-10.52-0.22c-2.958,2.85-3.05,7.555-0.202,10.516
	c17.484,18.22,39.433,31.623,63.462,38.797c0.71,0.21,1.425,0.313,2.14,0.313c3.192,0,6.154-2.097,7.11-5.316
	C369.101,452.819,366.851,448.684,362.926,447.515L362.926,447.515z"/>
<path d="M561.469,149.412c-6.502-26.542-23.81-41.768-47.5-41.768h-23.963c-24.597,0-44.616,20.01-44.616,44.603
	c0,20.847,14.57,38.537,34.037,43.315c5.577,31.467,13.337,83.144,13.337,126.846c0,51.063-41.542,92.651-92.616,92.7
	c-51.05-0.049-92.598-41.637-92.598-92.7c0-43.702,7.755-95.38,13.322-126.846c19.48-4.783,34.037-22.468,34.037-43.315
	c0-24.592-20.004-44.603-44.602-44.603h-23.96c-23.692,0-41,15.227-47.517,41.763c-5.478,22.4-20.538,104.99-20.538,173.005
	c0,100.234,81.503,181.823,181.72,181.943h0.163c100.29-0.06,181.853-81.674,181.853-181.943c-0.006-68.015-15.07-150.61-20.555-173
	H561.469z M400.156,483.54c-88.8-0.05-161.04-72.33-161.04-161.128c0-66.096,14.61-146.302,19.94-168.05
	c4.207-17.18,13.392-25.89,27.28-25.89h23.962c13.112,0,23.78,10.66,23.78,23.775c0,12.955-10.542,23.608-23.5,23.765
	c-4.388,0.05-8.006,3.315-8.7,7.525c-5.67,30.717-15.17,89.44-15.17,138.87c0,62.547,50.89,113.479,113.432,113.529h0.161
	c62.493-0.134,113.284-51.037,113.284-113.529c0-49.313-9.445-107.864-15.115-138.646c-0.582-4.338-4.273-7.7-8.754-7.75
	c-12.95-0.157-23.489-10.81-23.489-23.765c0-13.116,10.659-23.775,23.779-23.775h23.96c13.9,0,23.076,8.705,27.28,25.89
	c5.323,21.743,19.942,101.954,19.942,168.05C561.194,411.206,488.958,483.492,400.156,483.54L400.156,483.54z"/>
<path d="M376.606,374.573c2.658,0,5.326-1.023,7.363-3.05l16.196-16.21l16.22,16.21c2.021,2.025,4.7,3.05,7.358,3.05
	s5.332-1.023,7.358-3.05c4.063-4.063,4.063-10.663,0-14.728l-16.195-16.21l16.196-16.2c4.063-4.075,4.063-10.67,0-14.729
	c-4.063-4.068-10.653-4.068-14.718,0l-16.222,16.207l-16.186-16.206c-4.07-4.07-10.668-4.07-14.732,0
	c-4.064,4.06-4.064,10.652,0,14.728l16.2,16.2l-16.21,16.21c-4.063,4.064-4.063,10.664,0,14.73
	C371.278,373.55,373.941,374.573,376.606,374.573L376.606,374.573z M369.242,273.692c2.037,2.042,4.705,3.055,7.368,3.055
	c2.66,0,5.327-1.014,7.364-3.055l16.196-16.206l16.22,16.206c2.022,2.042,4.7,3.055,7.36,3.055s5.33-1.014,7.357-3.055
	c4.064-4.063,4.064-10.664,0-14.727l-16.194-16.2l16.195-16.207c4.064-4.063,4.064-10.66,0-14.722c-4.063-4.07-10.652-4.07-14.716,0
	l-16.221,16.2l-16.187-16.2c-4.07-4.07-10.668-4.07-14.732,0c-4.064,4.063-4.064,10.66,0,14.722l16.2,16.206l-16.21,16.2
	C365.175,263.028,365.175,269.628,369.242,273.692L369.242,273.692z"/>
</svg>
