<?xml version="1.0" encoding="utf-8"?>
<!-- Generator: Adobe Illustrator 15.1.0, SVG Export Plug-In . SVG Version: 6.00 Build 0)  -->
<!DOCTYPE svg PUBLIC "-//W3C//DTD SVG 1.1//EN" "http://www.w3.org/Graphics/SVG/1.1/DTD/svg11.dtd">
<svg version="1.1" id="Layer_1" xmlns="http://www.w3.org/2000/svg" xmlns:xlink="http://www.w3.org/1999/xlink" x="0px" y="0px"
	 width="504px" height="504px" viewBox="144 54 504 504" enable-background="new 144 54 504 504" xml:space="preserve">
<style>path{fill:#635024;}</style>
<path d="M417.478,238.376c3.026,0.058,5.46-2.297,5.494-5.337c0.034-2.977-2.43-5.47-5.404-5.444
	c-2.835,0.01-5.19,2.315-5.313,5.208c-0.132,3.025,2.198,5.513,5.224,5.57V238.376z M355.333,448.937
	c2.898-0.033,5.22-2.32,5.302-5.203c0.083-3.03-2.27-5.537-5.258-5.586c-2.977-0.048-5.454,2.395-5.48,5.396
	c-0.023,2.986,2.435,5.421,5.436,5.395V448.937z M312.146,343.635c3.035,0.103,5.503-2.237,5.562-5.271
	c0.064-3.01-2.325-5.448-5.36-5.448c-2.998-0.004-5.45,2.443-5.426,5.427C306.942,341.206,309.257,343.557,312.146,343.635
	L312.146,343.635z M504.367,378.039c-2.928,0-5.253,2.232-5.348,5.13c-0.098,3.101,2.15,5.494,5.216,5.563
	c3.04,0.08,5.521-2.29,5.552-5.269C509.817,380.473,507.387,378.044,504.367,378.039z M358.677,208.339
	c2.913,0.05,5.484-2.507,5.47-5.44c-0.01-3.05-2.415-5.36-5.5-5.307c-3.075,0.05-5.4,2.463-5.302,5.513
	C353.448,205.938,355.837,208.298,358.677,208.339L358.677,208.339z M224.115,272.75c-3.065,0.088-5.322,2.502-5.214,5.582
	c0.1,2.89,2.45,5.175,5.328,5.175c3.035,0,5.405-2.408,5.366-5.453C229.555,274.988,227.147,272.654,224.115,272.75L224.115,272.75z
	 M521.4,242.749c-3.114-0.123-5.532,2.076-5.646,5.11c-0.103,2.93,2.36,5.528,5.303,5.607c2.962,0.072,5.381-2.346,5.4-5.4
	C526.482,245.039,524.411,242.865,521.4,242.749L521.4,242.749z M415.476,388.741c3.074-0.023,5.356-2.37,5.292-5.464
	c-0.063-3.04-2.495-5.345-5.536-5.232c-2.884,0.107-5.141,2.431-5.164,5.313c-0.011,3.06,2.34,5.4,5.409,5.385L415.476,388.741z
	 M489.763,363.003c-2.863,0.007-5.272,2.316-5.359,5.146c-0.104,2.986,2.295,5.562,5.231,5.61c2.963,0.063,5.523-2.395,5.543-5.332
	C495.212,365.442,492.768,363,489.763,363.003L489.763,363.003z M400.886,373.76c3.021-0.051,5.308-2.469,5.243-5.542
	c-0.063-3.108-2.41-5.303-5.528-5.186c-2.933,0.108-5.149,2.4-5.16,5.313C395.431,371.308,397.957,373.815,400.886,373.76
	L400.886,373.76z M520.206,302.763c-2.81,0.054-5.195,2.428-5.283,5.273c-0.103,3.07,2.198,5.47,5.273,5.488
	c3.016,0.04,5.508-2.375,5.503-5.327C525.699,305.3,523.074,302.715,520.206,302.763L520.206,302.763z M418.408,178.179
	c3.069,0.02,5.43-2.306,5.425-5.356c-0.005-3.016-2.434-5.39-5.454-5.342c-2.924,0.06-5.17,2.292-5.235,5.214
	C413.064,175.785,415.342,178.149,418.408,178.179L418.408,178.179z M401.526,313.534c3.069,0.078,5.493-2.223,5.532-5.25
	c0.049-3.015-2.376-5.507-5.353-5.507c-2.972-0.01-5.41,2.463-5.39,5.48C396.341,311.131,398.636,313.463,401.526,313.534
	L401.526,313.534z M403.44,193.219c3.085-0.01,5.386-2.365,5.321-5.454c-0.054-2.91-2.335-5.235-5.204-5.293
	c-2.918-0.078-5.536,2.433-5.565,5.332c-0.024,2.956,2.452,5.413,5.45,5.413L403.44,193.219z M253.61,302.773
	c-2.96-0.093-5.475,2.345-5.52,5.346c-0.038,3.03,2.332,5.415,5.387,5.41c3.026-0.01,5.425-2.438,5.36-5.436
	C258.779,305.207,256.467,302.856,253.61,302.773L253.61,302.773z M518.923,393.079c-3.035,0.04-5.327,2.42-5.263,5.504
	c0.05,2.895,2.31,5.141,5.232,5.194c3.021,0.05,5.44-2.32,5.45-5.32C524.343,395.421,521.959,393.051,518.923,393.079
	L518.923,393.079z M534.482,347.919c-2.968-0.005-5.48,2.508-5.444,5.444c0.044,2.947,2.57,5.351,5.562,5.282
	c3.047-0.064,5.309-2.479,5.205-5.563C539.707,350.165,537.391,347.928,534.482,347.919L534.482,347.919z M357.517,298.484
	c3.036-0.03,5.396-2.468,5.327-5.488c-0.073-2.992-2.54-5.253-5.635-5.146c-3.085,0.103-5.284,2.502-5.132,5.606
	C352.223,296.344,354.577,298.519,357.517,298.484z M431.563,283.506c2.957,0.113,5.543-2.296,5.62-5.25
	c0.095-2.956-2.35-5.487-5.33-5.512c-2.93-0.03-5.243,2.15-5.405,5.072C426.287,280.849,428.557,283.37,431.563,283.506z
	 M267.944,317.911c-2.952,0.06-5.17,2.272-5.224,5.22c-0.068,3.016,2.31,5.458,5.322,5.468c3.045,0.01,5.386-2.346,5.366-5.41
	C273.384,320.094,271.058,317.849,267.944,317.911z M386.124,358.666c3.08,0.038,5.44-2.271,5.444-5.342
	c0.01-3.036-2.38-5.43-5.405-5.405c-2.825,0.034-5.25,2.391-5.347,5.21C380.719,356.1,383.136,358.622,386.124,358.666
	L386.124,358.666z M400.396,403.776c3.056,0.006,5.425-2.38,5.38-5.41c-0.059-3.04-2.473-5.359-5.53-5.282
	c-3.012,0.084-5.333,2.565-5.2,5.587C395.176,401.589,397.463,403.768,400.396,403.776L400.396,403.776z M401.963,283.511
	c2.972,0.108,5.488-2.31,5.519-5.312c0.034-3.055-2.311-5.43-5.36-5.45c-2.86-0.014-5.273,2.283-5.4,5.127
	C396.598,280.814,399.006,283.409,401.963,283.511L401.963,283.511z M550.248,272.747c-2.953,0.058-5.415,2.648-5.308,5.57
	c0.106,2.796,2.56,5.176,5.38,5.205c2.968,0.035,5.396-2.423,5.396-5.44c-0.015-3.05-2.41-5.394-5.47-5.336L550.248,272.747z
	 M534.947,317.911c-3-0.034-5.248,2.07-5.396,5.023c-0.143,3.07,2.08,5.532,5.13,5.664c2.997,0.133,5.49-2.207,5.567-5.233
	C540.313,320.279,538.036,317.936,534.947,317.911L534.947,317.911z M386.467,328.599c3.03,0.08,5.508-2.28,5.562-5.277
	c0.048-3.017-2.326-5.415-5.372-5.41c-2.997,0.011-5.205,2.11-5.317,5.072C381.218,326.113,383.426,328.526,386.467,328.599
	L386.467,328.599z M414.384,448.937c2.938,0.1,5.547-2.351,5.625-5.262c0.063-2.854-2.526-5.498-5.406-5.519
	c-2.946-0.03-5.38,2.447-5.369,5.46C409.243,446.524,411.475,448.836,414.384,448.937L414.384,448.937z M356,388.727
	c3.068,0.08,5.458-2.213,5.492-5.269c0.04-2.89-2.17-5.26-5.053-5.404c-3.037-0.166-5.523,2.096-5.636,5.126
	c-0.117,3.1,2.106,5.474,5.195,5.547H356z M548.838,363.032c-2.874,0.104-5.15,2.45-5.17,5.327c-0.03,2.942,2.535,5.47,5.47,5.4
	c3.021-0.068,5.341-2.497,5.276-5.542C554.36,365.184,551.917,362.921,548.838,363.032L548.838,363.032z M297.62,328.599
	c2.99,0.055,5.453-2.36,5.458-5.351c0.005-2.934-2.193-5.22-5.117-5.343c-3.098-0.112-5.54,2.11-5.644,5.149
	C292.215,326.033,294.627,328.549,297.62,328.599L297.62,328.599z M414.897,418.911c2.928,0.05,5.443-2.42,5.464-5.404
	c0.029-3.03-2.351-5.396-5.404-5.36c-2.957,0.028-5.2,2.207-5.297,5.154C409.557,416.326,411.906,418.856,414.897,418.911
	L414.897,418.911z M385.502,418.901c2.933-0.09,5.38-2.713,5.253-5.636c-0.142-2.997-2.653-5.25-5.708-5.112
	c-2.913,0.127-5.102,2.463-5.053,5.4C380.034,416.511,382.584,418.988,385.502,418.901L385.502,418.901z M268.395,287.826
	c-2.957,0.038-5.194,2.242-5.268,5.174c-0.073,3.01,2.292,5.454,5.308,5.488c3.055,0.03,5.405-2.306,5.375-5.36
	C273.8,290.013,271.52,287.786,268.395,287.826L268.395,287.826z M355.597,418.901c2.943,0.073,5.45-2.404,5.464-5.39
	c0.02-3.105-2.286-5.388-5.39-5.367c-3.05,0.015-5.464,2.463-5.39,5.454C350.355,416.404,352.793,418.838,355.597,418.901
	L355.597,418.901z M239.895,197.586c-2.952,0.036-5.464,2.626-5.34,5.5c0.12,2.79,2.59,5.204,5.37,5.268
	c2.977,0.073,5.376-2.36,5.366-5.44C245.287,199.784,243.029,197.552,239.895,197.586L239.895,197.586z M418.056,208.349
	c2.811-0.04,5.221-2.4,5.327-5.23c0.107-3.06-2.184-5.482-5.244-5.527c-3.069-0.05-5.489,2.277-5.52,5.298
	C412.591,205.827,415.146,208.382,418.056,208.349L418.056,208.349z M489.435,393.079c-2.995-0.044-5.513,2.38-5.558,5.332
	c-0.034,2.898,2.53,5.391,5.51,5.366c2.977-0.028,5.188-2.173,5.268-5.154C494.731,395.543,492.46,393.125,489.435,393.079
	L489.435,393.079z M224.576,242.749c-3.114-0.02-5.48,2.29-5.444,5.327c0.03,2.824,2.394,5.267,5.204,5.38
	c2.908,0.117,5.528-2.375,5.586-5.298C229.972,245.083,227.68,242.761,224.576,242.749L224.576,242.749z M224.845,212.643
	c-3.124,0.074-5.283,2.385-5.185,5.528c0.103,3.006,2.232,5.048,5.302,5.053c3.114,0.005,5.464-2.306,5.405-5.332
	C230.323,214.812,227.954,212.568,224.845,212.643L224.845,212.643z M254.43,212.643c-2.946,0.074-5.164,2.3-5.213,5.234
	c-0.064,3.03,2.286,5.347,5.4,5.347c3.158-0.005,5.347-2.213,5.313-5.36C259.885,214.796,257.535,212.553,254.43,212.643
	L254.43,212.643z M416.64,298.488c3.076,0.044,5.4-2.252,5.4-5.332c-0.004-3.144-2.236-5.366-5.39-5.327
	c-3.074,0.024-5.381,2.404-5.299,5.474c0.061,2.86,2.386,5.14,5.29,5.185H416.64z M373.233,223.222
	c3.153,0.044,5.474-2.16,5.503-5.234c0.03-2.913-2.18-5.22-5.106-5.347c-3.11-0.127-5.547,2.076-5.65,5.117
	C367.886,220.828,370.13,223.165,373.233,223.222L373.233,223.222z M358.27,238.376c3.08,0.004,5.367-2.307,5.343-5.42
	c-0.015-3.065-2.414-5.45-5.42-5.36c-2.79,0.072-5.253,2.516-5.313,5.29C352.812,235.819,355.318,238.376,358.27,238.376z
	 M372.915,253.446c2.942-0.01,5.36-2.507,5.322-5.504c-0.044-3.12-2.31-5.268-5.508-5.194c-2.934,0.063-5.23,2.345-5.26,5.22
	C367.445,250.855,370.025,253.456,372.915,253.446L372.915,253.446z M283.18,302.763c-2.912-0.064-5.42,2.443-5.424,5.435
	c-0.01,3.045,2.38,5.375,5.454,5.327c3.084-0.035,5.332-2.385,5.24-5.504c-0.08-2.86-2.42-5.2-5.27-5.26V302.763z M519.58,363.038
	c-3.086-0.094-5.48,2.193-5.514,5.238c-0.04,3.03,2.306,5.44,5.325,5.48c2.854,0.027,5.25-2.264,5.356-5.133
	c0.124-3.074-2.124-5.503-5.17-5.586H519.58z M356.694,358.651c2.943-0.064,5.16-2.297,5.22-5.244
	c0.053-3.034-2.322-5.473-5.337-5.487c-3.04,0-5.396,2.375-5.376,5.45C351.207,356.395,353.631,358.721,356.694,358.651
	L356.694,358.651z M239.71,227.594c-3.032-0.093-5.392,2.237-5.426,5.332c-0.03,3.124,2.218,5.45,5.283,5.45
	c3.045,0,5.332-2.356,5.298-5.47C244.835,229.999,242.578,227.676,239.71,227.594L239.71,227.594z M253.854,272.747
	c-2.854,0.014-5.25,2.32-5.35,5.16c-0.114,2.986,2.266,5.522,5.243,5.61c2.986,0.088,5.415-2.296,5.435-5.35
	C259.215,275.09,256.889,272.731,253.854,272.747L253.854,272.747z M521.542,212.643c-2.942,0.02-5.248,2.223-5.336,5.112
	c-0.104,3.065,2.16,5.42,5.258,5.47c3.134,0.043,5.503-2.194,5.519-5.225C527.006,214.998,524.602,212.617,521.542,212.643z
	 M372.547,283.506c3.06-0.06,5.327-2.448,5.268-5.527c-0.068-2.933-2.326-5.19-5.23-5.234c-3.088-0.045-5.345,2.212-5.35,5.355
	C367.23,281.22,369.517,283.565,372.547,283.506L372.547,283.506z M371.906,313.524c3.07,0.073,5.474-2.247,5.484-5.283
	c0.024-2.992-2.448-5.508-5.38-5.48c-2.968,0.025-5.353,2.522-5.303,5.528C366.75,311.262,368.949,313.465,371.906,313.524
	L371.906,313.524z M415.813,358.656c3.017,0.021,5.48-2.42,5.471-5.382c-0.006-2.94-2.57-5.414-5.515-5.355
	c-2.899,0.078-5.182,2.36-5.244,5.255C410.466,356.253,412.771,358.642,415.813,358.656L415.813,358.656z M520.945,272.75
	c-3.07-0.113-5.426,2.12-5.488,5.22c-0.064,3.157,2.124,5.497,5.194,5.536c3.025,0.04,5.387-2.32,5.387-5.4
	C526.033,275.178,523.83,272.854,520.945,272.75L520.945,272.75z M430.49,373.765c2.934-0.005,5.436-2.55,5.416-5.48
	c-0.021-2.896-2.61-5.325-5.59-5.247c-2.974,0.084-5.138,2.287-5.183,5.265C425.104,371.356,427.476,373.775,430.49,373.765
	L430.49,373.765z M416.264,328.599c3.04,0.01,5.42-2.364,5.405-5.405c-0.016-3.064-2.38-5.336-5.484-5.288
	c-3.06,0.048-5.342,2.457-5.225,5.513C411.055,326.342,413.365,328.587,416.264,328.599L416.264,328.599z M384.983,448.937
	c3.035-0.033,5.307-2.433,5.248-5.526c-0.058-3.04-2.535-5.39-5.546-5.253c-2.85,0.123-5.126,2.519-5.146,5.393
	c-0.014,2.957,2.473,5.424,5.445,5.39L384.983,448.937z M429.21,464.003c2.897-0.005,5.458-2.624,5.414-5.508
	c-0.05-2.992-2.512-5.279-5.61-5.194c-3.14,0.083-5.272,2.374-5.149,5.536C423.974,461.682,426.384,464.018,429.21,464.003
	L429.21,464.003z M536.274,227.594c-2.973-0.063-5.44,2.39-5.44,5.39c0,3.046,2.37,5.41,5.42,5.396
	c2.836-0.02,5.234-2.36,5.348-5.21C541.704,230.269,539.207,227.658,536.274,227.594z M254.265,242.749
	c-3.143,0.024-5.322,2.29-5.244,5.44c0.075,2.907,2.37,5.228,5.225,5.282c2.933,0.05,5.444-2.438,5.464-5.405
	C259.734,245.023,257.37,242.712,254.265,242.749L254.265,242.749z M402.623,253.489c2.943-0.05,5.4-2.63,5.308-5.586
	c-0.092-3.04-2.489-5.263-5.595-5.155c-3.09,0.098-5.24,2.462-5.092,5.6C397.376,251.203,399.819,253.539,402.623,253.489
	L402.623,253.489z M432.322,253.437c2.973-0.064,5.355-2.6,5.26-5.592c-0.104-3.02-2.532-5.214-5.647-5.097
	c-2.941,0.113-5.109,2.385-5.082,5.323C426.868,251.067,429.36,253.495,432.322,253.437L432.322,253.437z M550.78,242.749
	c-3.016,0-5.229,2.105-5.326,5.072c-0.098,3.06,2.188,5.557,5.195,5.65c2.956,0.093,5.438-2.335,5.502-5.352
	C556.205,245.024,553.909,242.738,550.78,242.749L550.78,242.749z M358.168,268.368c2.933-0.127,5.082-2.448,5.018-5.435
	c-0.063-2.967-2.335-5.205-5.292-5.22c-3.08-0.004-5.346,2.346-5.283,5.494C352.666,266.362,354.981,268.507,358.168,268.368
	L358.168,268.368z M387.5,268.383c3.104-0.015,5.405-2.296,5.366-5.36c-0.034-2.987-2.56-5.44-5.488-5.342
	c-2.8,0.088-5.224,2.52-5.288,5.297C382.036,265.944,384.48,268.388,387.5,268.383z M312.552,313.534
	c2.986,0.099,5.572-2.315,5.63-5.229c0.054-2.907-2.487-5.512-5.39-5.536c-3.007-0.025-5.372,2.384-5.347,5.479
	C307.465,311.242,309.595,313.441,312.552,313.534z M431.3,313.534c3.09,0.021,5.391-2.292,5.37-5.39
	c-0.03-2.875-2.306-5.254-5.14-5.372c-2.925-0.123-5.484,2.315-5.559,5.302C425.899,311.11,428.244,313.514,431.3,313.534
	L431.3,313.534z M549.768,302.773c-2.941,0.107-5.276,2.678-5.17,5.654c0.112,2.914,2.404,5.103,5.353,5.103
	c3.04,0,5.386-2.384,5.342-5.43C555.256,305.147,552.672,302.655,549.768,302.773z M356.973,328.599
	c3.03,0.029,5.376-2.33,5.36-5.415c-0.01-3.11-2.31-5.336-5.438-5.273c-2.894,0.061-5.25,2.355-5.317,5.205
	C351.504,326.033,354.001,328.575,356.973,328.599L356.973,328.599z M371.71,343.635c3.06-0.063,5.366-2.497,5.25-5.537
	c-0.108-3.03-2.586-5.303-5.622-5.164c-2.903,0.142-5.17,2.506-5.146,5.37C366.222,341.281,368.719,343.693,371.71,343.635
	L371.71,343.635z M519.79,332.916c-2.958,0.04-5.435,2.57-5.376,5.511c0.06,2.806,2.463,5.159,5.33,5.21
	c3.062,0.058,5.42-2.253,5.43-5.343C525.204,335.225,522.85,332.874,519.79,332.916L519.79,332.916z M549.474,332.913
	c-2.918,0.004-5.204,2.242-5.292,5.154c-0.088,3.105,2.146,5.505,5.2,5.568c3.024,0.063,5.458-2.286,5.497-5.309
	C554.917,335.308,552.514,332.895,549.474,332.913L549.474,332.913z M371.054,373.76c2.957,0.103,5.464-2.33,5.483-5.337
	c0.02-3.04-2.33-5.4-5.386-5.386c-2.937,0.005-5.188,2.194-5.287,5.132C365.762,371.229,368.02,373.644,371.054,373.76
	L371.054,373.76z M370.662,403.776c3.02,0.035,5.48-2.38,5.46-5.34c-0.02-2.891-2.288-5.234-5.147-5.348
	c-3.08-0.122-5.47,2.114-5.542,5.194C365.36,401.384,367.617,403.748,370.662,403.776L370.662,403.776z M429.997,403.776
	c3.03,0.025,5.43-2.38,5.396-5.39c-0.04-2.891-2.315-5.214-5.18-5.299c-3.017-0.093-5.548,2.287-5.597,5.24
	c-0.04,2.99,2.365,5.425,5.38,5.45L429.997,403.776z M459.682,393.079c-2.928,0-5.189,2.198-5.293,5.146
	c-0.107,3.106,2.104,5.481,5.175,5.55c3.007,0.063,5.493-2.29,5.566-5.277C465.19,395.565,462.692,393.088,459.682,393.079
	L459.682,393.079z M370.144,433.786c3.182,0.082,5.45-2.053,5.508-5.172c0.05-3.123-2.198-5.404-5.307-5.41
	c-2.928-0.01-5.273,2.174-5.425,5.054C364.758,431.226,367.103,433.702,370.144,433.786L370.144,433.786z M399.8,433.786
	c3.093,0.059,5.518-2.189,5.575-5.189c0.05-2.979-2.36-5.397-5.405-5.397c-2.967-0.01-5.233,2.141-5.355,5.063
	C394.477,431.353,396.689,433.706,399.8,433.786L399.8,433.786z M429.346,433.786c3.207,0.12,5.444-1.93,5.519-5.078
	c0.074-3.217-2.013-5.449-5.141-5.514c-3.12-0.054-5.426,2.18-5.436,5.273C424.273,431.475,426.358,433.657,429.346,433.786
	L429.346,433.786z M373.757,193.219c3.05,0,5.35-2.335,5.336-5.425c-0.015-3.065-2.414-5.4-5.45-5.312
	c-3.093,0.093-5.213,2.404-5.125,5.6C368.596,191.061,370.78,193.2,373.757,193.219L373.757,193.219z M388.37,208.354
	c3.002,0.01,5.377-2.42,5.348-5.474c-0.03-3.084-2.355-5.352-5.45-5.298c-3.088,0.054-5.208,2.355-5.125,5.547
	C383.23,206.059,385.507,208.338,388.37,208.354L388.37,208.354z M369.776,453.305c-2.958,0.045-5.2,2.232-5.258,5.155
	c-0.064,2.978,2.36,5.504,5.312,5.537c2.972,0.03,5.435-2.437,5.42-5.43C375.235,455.505,372.91,453.262,369.776,453.305
	L369.776,453.305z M399.578,464.026c2.972-0.023,5.337-2.516,5.283-5.565c-0.061-3.1-2.374-5.254-5.558-5.159
	c-2.972,0.093-5.14,2.31-5.14,5.271C394.179,461.599,396.612,464.066,399.578,464.026L399.578,464.026z M536.392,197.591
	c-2.979,0.108-5.032,2.292-5.032,5.327c0,3.075,2.374,5.488,5.346,5.435c3.012-0.064,5.313-2.52,5.229-5.582
	C541.845,199.691,539.475,197.464,536.392,197.591L536.392,197.591z M535.878,257.725c-2.967-0.073-5.493,2.34-5.557,5.307
	c-0.063,2.928,2.409,5.347,5.465,5.347c2.957,0.005,5.189-2.125,5.297-5.092C541.196,260.286,538.86,257.783,535.878,257.725
	L535.878,257.725z M387.876,238.376c2.967,0.058,5.425-2.385,5.425-5.4c-0.004-2.978-2.5-5.44-5.453-5.377
	c-2.898,0.06-5.16,2.34-5.24,5.253c-0.072,3.05,2.234,5.465,5.27,5.523L387.876,238.376z M551.095,212.643
	c-3.02,0.05-5.092,2.2-5.102,5.283c-0.016,3.123,1.997,5.228,5.048,5.296c3.18,0.068,5.49-2.125,5.52-5.25
	C556.599,214.914,554.211,212.577,551.095,212.643L551.095,212.643z M282.8,332.896c-3.032-0.077-5.406,2.232-5.455,5.317
	c-0.044,2.957,2.06,5.225,5.018,5.4c3.06,0.177,5.47-2.042,5.562-5.12C288.013,335.36,285.819,332.984,282.8,332.896L282.8,332.896z
	 M417.2,268.383c3.04-0.005,5.399-2.384,5.354-5.405c-0.04-2.933-2.62-5.38-5.557-5.263c-2.952,0.117-5.106,2.36-5.136,5.3
	C411.849,266.129,414.091,268.382,417.2,268.383L417.2,268.383z M239.146,257.68c-2.795,0.044-5.205,2.458-5.273,5.278
	c-0.08,2.992,2.31,5.405,5.356,5.425c3.103,0.015,5.42-2.282,5.404-5.347C244.619,260.061,242.126,257.626,239.146,257.68
	L239.146,257.68z M388.758,178.141c3.11,0.04,5.405-2.237,5.386-5.317c-0.024-3.094-2.384-5.4-5.435-5.332
	c-2.89,0.064-5.264,2.38-5.328,5.205C383.303,175.638,385.736,178.102,388.758,178.141L388.758,178.141z M401.346,343.635
	c3.021-0.055,5.405-2.526,5.313-5.519c-0.105-2.997-2.636-5.327-5.632-5.2c-3.025,0.152-5.264,2.646-5.087,5.676
	C396.087,341.481,398.467,343.688,401.346,343.635L401.346,343.635z M403.255,223.222c2.942-0.108,5.097-2.355,5.077-5.302
	c-0.005-3.065-2.35-5.342-5.444-5.283c-3.124,0.05-5.281,2.34-5.204,5.485C397.771,221.232,400.064,223.34,403.255,223.222
	L403.255,223.222z M474.957,378.054c-3.006-0.112-5.513,2.208-5.62,5.199c-0.104,2.973,2.28,5.421,5.326,5.464
	c3.12,0.033,5.37-2.203,5.36-5.336C480.015,380.394,477.895,378.156,474.957,378.054L474.957,378.054z M431.182,343.63
	c2.908-0.146,5.082-2.463,5.067-5.386c-0.021-3-2.493-5.404-5.465-5.347c-3.021,0.08-5.332,2.548-5.22,5.578
	c0.113,3.05,2.557,5.308,5.616,5.156L431.182,343.63z M238.627,287.839c-2.894,0.093-5.14,2.41-5.15,5.303
	c-0.005,3.03,2.384,5.37,5.44,5.336c3.083-0.044,5.36-2.394,5.29-5.47C244.13,289.999,241.692,287.738,238.627,287.839
	L238.627,287.839z M535.275,287.859c-3.084,0.02-5.15,2.09-5.19,5.175c-0.048,3.192,2.17,5.48,5.3,5.45
	c2.946-0.025,5.224-2.283,5.276-5.23C540.716,290.151,538.411,287.831,535.275,287.859L535.275,287.859z M534.057,378.054
	c-3.1,0.005-5.482,2.42-5.409,5.454c0.067,2.909,2.395,5.166,5.337,5.204c3.084,0.021,5.479-2.394,5.399-5.443
	c-0.094-2.956-2.42-5.228-5.327-5.213V378.054z M359.054,178.12c3.07,0.073,5.503-2.232,5.513-5.24c0.02-2.966-2.418-5.4-5.42-5.395
	c-3.06,0.01-5.302,2.334-5.258,5.458c0.033,3.002,2.133,5.113,5.164,5.176L359.054,178.12z M385.56,388.683
	c3.125,0.104,5.528-2.105,5.597-5.141c0.068-3.04-2.282-5.483-5.283-5.489c-3.064-0.015-5.464,2.336-5.45,5.338
	C380.434,386.284,382.667,388.591,385.56,388.683L385.56,388.683z M386.868,298.484c3.09,0.103,5.503-2.145,5.562-5.185
	c0.073-3.094-2.174-5.415-5.258-5.45c-3.016-0.02-5.244,2.053-5.386,5C381.644,295.978,383.803,298.372,386.868,298.484
	L386.868,298.484z"/>
<path d="M602.243,259.106H585.37v-13.12h16.873c4.387,0,7.946-3.554,7.946-7.95c0-4.398-3.565-7.952-7.947-7.952H585.37v-12.617
	c0-25.16-20.464-45.626-45.614-45.626c-25.166,0-45.636,20.465-45.636,45.626v103.99c0,13.466-10.947,24.417-24.402,24.417h-13.565
	V199.668c0-13.01-3.73-25.15-10.16-35.442l13.044-13.038c3.104-3.11,3.104-8.142,0-11.24c-3.104-3.115-8.137-3.115-11.25,0
	l-11.816,11.818c-1.394-1.36-2.833-2.678-4.337-3.917l12.03-12.034c3.104-3.1,3.104-8.138,0-11.242c-3.11-3.11-8.144-3.11-11.24,0
	L417.896,139.1c-8.735-4.18-18.519-6.526-28.833-6.526c-36.994,0-67.095,30.096-67.095,67.095v76.177H308.4
	c-13.464,0-24.412-10.952-24.412-24.417v-33.952c0-25.162-20.465-45.627-45.62-45.627c-6.846,0-13.328,1.562-19.16,4.274
	l-12.885-12.886c-3.11-3.103-8.142-3.103-11.246,0c-3.11,3.1-3.11,8.143,0,11.242l10.908,10.908c-1.376,1.39-2.63,2.88-3.82,4.436
	l-11.21-11.217c-3.115-3.1-8.148-3.1-11.247,0c-3.1,3.103-3.1,8.146,0,11.24l14.89,14.89c-1.18,4.053-1.847,8.312-1.847,12.743v52.3
	c0,53.65,43.66,97.307,97.314,97.307h31.907v28.068h-16.43c-4.396,0-7.956,3.555-7.956,7.956c0,4.387,3.56,7.946,7.956,7.946h16.43
	v14.796h-16.43c-4.396,0-7.956,3.563-7.956,7.946c0,4.396,3.56,7.956,7.956,7.956h16.43v29.443h-16.43
	c-5.126,0-9.283,4.166-9.283,9.283c0,5.126,4.152,9.277,9.283,9.277h165.563c5.119,0,9.277-4.15,9.277-9.277
	c0-5.117-4.156-9.283-9.276-9.283H456.15v-34.076h31.902c21.954,0,42.225-7.31,58.521-19.617l12.75,12.75
	c1.553,1.546,3.59,2.334,5.62,2.334c2.027,0,4.069-0.783,5.622-2.336c3.104-3.104,3.104-8.137,0-11.25l-12.118-12.107
	c3.036-3.18,5.846-6.563,8.436-10.126l12.955,12.964c1.552,1.553,3.584,2.336,5.62,2.336c2.037,0,4.07-0.778,5.62-2.336
	c3.104-3.108,3.104-8.137,0-11.24l-15.367-15.374c-0.117-0.122-0.264-0.206-0.386-0.313c6.418-12.983,10.046-27.578,10.046-43v-64.8
	h16.872c4.387,0,7.946-3.56,7.946-7.945C610.189,262.665,606.631,259.105,602.243,259.106L602.243,259.106z M257.39,341.396
	c0.645-0.866,1.037-1.938,1.04-3.101c0.03-2.976-2.408-5.402-5.43-5.384c-2.275,0.011-4.18,1.42-4.944,3.422
	c-3.667-2.325-7.133-4.93-10.355-7.81c0.23,0.03,0.47,0.07,0.726,0.07c2.972-0.021,5.42-2.503,5.39-5.46
	c-0.038-2.957-2.525-5.297-5.57-5.23c-2.948,0.074-5.093,2.258-5.127,5.254c-0.006,0.348,0.038,0.695,0.087,1.02
	c-3.172-3.305-6.076-6.895-8.63-10.717c2.652-0.357,4.64-2.557,4.61-5.317c-0.028-2.967-2.57-5.454-5.487-5.38
	c-1.674,0.054-3.134,0.896-4.083,2.16c-1.772-3.536-3.28-7.217-4.514-11.026c0.18-0.215,0.348-0.416,0.548-0.645
	c-0.464-0.558-0.865-1.11-1.237-1.64c-2.008-6.938-3.11-14.267-3.11-21.84v-1.69c2.067-0.675,3.423-2.477,3.467-4.89
	c0.05-2.478-1.36-4.437-3.466-5.16v-19.856c2.228-0.587,3.897-2.536,4-4.96c0.103-2.6-1.61-4.812-4-5.438v-10.31
	c0-3.56,0.71-6.94,1.954-10.047c0.666-0.402,1.25-0.965,1.71-1.724c0.63-1.042,0.895-2.07,0.797-3.07
	c2.85-4.317,6.898-7.774,11.667-9.894c0.2-0.07,0.382-0.162,0.568-0.26c3.197-1.332,6.703-2.076,10.38-2.076
	c14.928,0,27.06,12.142,27.06,27.07v11.863c-0.916,0.994-1.474,2.325-1.435,3.774c0.034,1.396,0.578,2.62,1.435,3.55v14.76
	c0,2.43,0.26,4.814,0.65,7.14c-1.537,0.974-2.53,2.693-2.48,4.656c0.077,2.948,2.285,5.112,5.248,5.166
	c0.03,0,0.063-0.016,0.083-0.016c4.662,10.805,13.626,19.285,24.716,23.354c-0.206,1.59-0.28,3.236,0.298,4.54
	c1.048,2.354,3.824,2.976,6.027,1.8c1.435-0.768,2.488-2.295,3.84-3.926c1.512,0.167,3.044,0.264,4.596,0.264h14.18
	c0.17,1.253,0.797,2.292,2.04,2.928v21.268c-1.463,0.832-2.428,2.346-2.54,4.254c-0.123,2.224,0.88,4.035,2.54,5.004v20.631
	c-0.04,0.01-0.063,0.03-0.092,0.043h-24.808c-0.773-0.406-1.635-0.636-2.59-0.61c-0.852,0.033-1.63,0.253-2.326,0.61h-4.74
	c-11.678,0.01-22.733-2.561-32.69-7.124L257.39,341.396z M340.518,464.007c2.894-0.15,5.19-2.657,5.077-5.631
	c-0.103-2.867-2.223-4.915-5.077-5.042v-19.573c0.07,0,0.137,0.023,0.206,0.023c3.08-0.034,5.356-2.375,5.278-5.435
	c-0.078-3.007-2.448-5.215-5.483-5.146v-19.479c0.146,0.015,0.298,0.054,0.45,0.054c3.1,0.07,5.42-2.163,5.464-5.272
	c0.05-3.06-2.3-5.449-5.337-5.42c-0.196,0.011-0.387,0.044-0.578,0.08v-19.509c0.327,0.064,0.67,0.104,1.022,0.104
	c2.957-0.024,5.435-2.53,5.405-5.483c-0.02-2.956-2.55-5.34-5.567-5.257c-0.3,0.014-0.573,0.06-0.857,0.103v-19.677
	c0.362,0.097,0.744,0.15,1.146,0.18c3.063,0.16,5.497-2.056,5.62-5.126c0.122-3.073-2.125-5.514-5.166-5.604
	c-0.563-0.021-1.097,0.077-1.606,0.22v-19.957c0.446,0.162,0.9,0.305,1.396,0.344c3.12,0.27,5.606-1.826,5.797-4.891
	c0.197-3.1-1.943-5.626-4.954-5.842c-0.773-0.063-1.532,0.093-2.232,0.377v-20.195c0.715,0.353,1.503,0.573,2.345,0.568
	c2.917-0.01,5.42-2.58,5.375-5.522c-0.05-2.95-2.595-5.34-5.59-5.248c-0.765,0.02-1.475,0.215-2.126,0.524v-20.588
	c0.817,0.504,1.78,0.793,2.84,0.773c3.03-0.072,5.262-2.46,5.204-5.585c-0.07-3.104-2.395-5.253-5.547-5.13
	c-0.94,0.034-1.777,0.293-2.492,0.694V222.28c0.818,0.578,1.86,0.916,3.026,0.936c3.213,0.058,5.406-2.048,5.445-5.206
	c0.03-3.143-2.154-5.366-5.297-5.38c-1.234-0.01-2.31,0.356-3.178,0.978v-13.954c0-2.502,0.25-4.94,0.612-7.344
	c0.832,0.548,1.83,0.876,2.898,0.896c3.055,0.044,5.454-2.29,5.483-5.332c0.03-2.908-2.54-5.474-5.444-5.45
	c-0.124,0.01-0.23,0.035-0.35,0.045c4.608-12.127,13.92-21.934,25.725-27.178c-0.43,0.764-0.695,1.625-0.67,2.536
	c0.058,2.796,2.442,5.23,5.257,5.357c2.977,0.137,5.454-2.248,5.488-5.293c0.03-2.36-1.204-4.24-3.128-5.038
	c4.05-1.102,8.28-1.733,12.666-1.733c4.382,0,8.617,0.637,12.656,1.733c-1.942,0.817-3.239,2.727-3.196,5.042
	c0.044,2.972,2.6,5.41,5.526,5.298c2.811-0.118,5.143-2.54,5.166-5.376c0.005-0.95-0.24-1.812-0.646-2.57
	c11.917,5.253,21.298,15.163,25.895,27.408c-0.427-0.118-0.861-0.196-1.327-0.206c-2.913-0.015-5.22,2.193-5.359,5.12
	c-0.141,3.125,2.04,5.54,5.096,5.64c1.56,0.045,2.976-0.572,4.004-1.585c0.437,2.62,0.72,5.292,0.72,8.03v16.283
	c-0.71-1.915-2.438-3.202-4.655-3.305c-3.13-0.137-5.563,2.032-5.694,5.082c-0.122,3.07,2.115,5.42,5.24,5.5
	c2.485,0.058,4.37-1.225,5.109-3.286v251.26H418.8c0.107-0.104,0.21-0.184,0.318-0.305c-4.016-3.556-6.037-3.556-10.013,0.088
	c0.1,0.088,0.182,0.138,0.265,0.216h-20.21c0.073-0.08,0.146-0.13,0.23-0.217c-3.614-3.644-6.072-3.657-9.817-0.034
	c0.093,0.097,0.176,0.156,0.264,0.25H359.43c0.09-0.094,0.167-0.153,0.26-0.25c-3.525-3.62-5.993-3.605-9.816,0.033
	c0.088,0.088,0.167,0.138,0.25,0.216h-9.606v-7.181V464.007z M508.734,415.796c0.353-0.737,0.56-1.546,0.544-2.418
	c-0.045-3.09-2.4-5.307-5.511-5.224c-2.901,0.083-5.228,2.414-5.252,5.258c-0.015,1.62,0.799,3.13,2.013,4.162
	c-4.063,0.646-8.23,0.99-12.484,0.99h-11.907c1.84-0.706,3.256-2.444,3.442-4.53c0.271-3.113-1.803-5.645-4.82-5.859
	c-3.16-0.235-5.575,1.836-5.735,4.92c-0.144,2.565,1.276,4.68,3.449,5.47h-18.979v-54.13h2.928c-0.95,0.904-1.547,2.188-1.602,3.706
	c-0.104,3.094,2.114,5.521,5.146,5.62c2.978,0.098,5.396-2.276,5.436-5.332c0.016-1.66-0.582-3.04-1.591-3.995h5.903
	c11.634,0,22.19-4.666,29.93-12.195c-0.063,0.348-0.098,0.72-0.098,1.106c0.024,3.055,2.065,5.21,5.048,5.316
	c3.08,0.107,5.454-2.14,5.527-5.215c0.073-3.04-2.262-5.48-5.271-5.521c-0.537,0-1.035,0.082-1.512,0.216
	c5.82-7.335,9.337-16.599,9.337-26.67V217.48c0-14.93,12.138-27.07,27.07-27.07c2.805,0,5.513,0.43,8.063,1.233
	c0.627,0.7,1.4,1.18,2.41,1.322c0.308,0.038,0.625,0.02,0.938,0.004c3.979,1.87,7.438,4.676,10.086,8.147
	c-1.043,2.91,0.611,5.994,3.817,6.904c1.107,2.947,1.738,6.13,1.738,9.464v10.203c-0.392-0.072-0.783-0.102-1.194-0.092
	c-2.835,0.137-5.146,2.556-5.146,5.405c0,3.035,2.418,5.43,5.435,5.385c0.311,0,0.603-0.05,0.905-0.103V257.9
	c-0.45-0.123-0.92-0.206-1.396-0.206c-3.051,0.01-5.375,2.384-5.326,5.454c0.03,3.1,2.34,5.303,5.454,5.24
	c0.444-0.015,0.859-0.083,1.268-0.19v19.96c-0.592-0.2-1.224-0.323-1.904-0.323c-3.029,0.015-5.409,2.448-5.337,5.46
	c0.061,2.858,2.391,5.16,5.288,5.204c0.7,0.01,1.348-0.112,1.948-0.327v20.226c-0.676-0.301-1.41-0.471-2.218-0.48
	c-2.967-0.035-5.233,2.09-5.391,5.027c-0.172,3.03,2.11,5.547,5.131,5.66c0.896,0.04,1.724-0.167,2.478-0.515v11.726
	c0,2.914-0.176,5.783-0.484,8.612c-0.651-0.299-1.366-0.484-2.109-0.504c-3.018-0.061-5.455,2.319-5.484,5.34
	c-0.02,3.08,2.315,5.417,5.396,5.406c0.127,0,0.26-0.029,0.392-0.045c-6.805,27.715-28.327,49.69-55.77,57.174L508.734,415.796z"/>
</svg>
