<?xml version="1.0" encoding="utf-8"?>

<svg version="1.1" id="layer-1" xmlns="http://www.w3.org/2000/svg" xmlns:xlink="http://www.w3.org/1999/xlink" x="0px" y="0px" width="362px" height="334px" viewBox="0 0 362 334" enable-background="new 0 0 362 334" xml:space="preserve">
	
<switch>
	<g>
		<g>
			<g>
				<linearGradient id="SVGID_1_" gradientUnits="userSpaceOnUse" x1="180.9253" y1="162.189" x2="180.9253" y2="6.8577">
					<stop  offset="0" style="stop-color:#CE6835"/>
					<stop  offset="1" style="stop-color:#DBAC4D"/>
				</linearGradient>
				<polygon fill="url(#SVGID_1_)" points="180.929,70.261 180.929,70.261 180.929,70.261 180.916,70.265 76.045,114.619 
					76.045,219.871 180.929,264.226 180.929,264.226 180.929,264.226 180.938,264.222 285.805,219.867 285.805,114.615 				"/>
				<g>
					<g>
						<g>
							<path fill="#F5F5F5" d="M254.098,135.103l-73.203-33.202l-73.119,33.21l-0.085-0.051v0.09v6.406v58.474l6.02,2.783
								l0.007-31.4l58.419,26.268l-0.013,32.044l6.21,2.864l0.017-40.504l-64.627-27.721l0.013-25.621l67.158-31.22l67.238,31.216
								l-0.004,25.616l-64.648,27.73l-0.015,40.504l70.692-32.566l0.025-58.475v-6.406v-0.09L254.098,135.103z M248.121,194.854
								l-58.438,27.728l0.01-24.901l58.436-26.272L248.121,194.854z"/>
						</g>
						<g opacity="0.53">
							<polygon opacity="0.72" fill="#F5F5F5" points="118.886,198.83 118.882,205.197 166.949,227.328 166.955,221.475 							"/>
						</g>
					</g>
				</g>
			</g>
			<g opacity=".7">
				<polygon  fill="none" stroke="#525967" stroke-width="3.7889" stroke-miterlimit="10" points="180.93,49.21 
					180.93,49.21 180.93,49.21 180.914,49.216 53.281,103.197 53.281,231.294 180.93,285.275 180.93,285.275 180.93,285.275 
					180.94,285.271 308.568,231.289 308.568,103.192">
					
				</polygon>
				
				<polygon opacity="0.41" fill="none" stroke="#525967" stroke-width="3.7889" stroke-miterlimit="10" points="180.931,28.459 
					180.931,28.459 180.931,28.459 180.912,28.465 30.84,91.937 30.84,242.556 180.931,306.027 180.931,306.027 180.931,306.027 
					180.943,306.021 331.01,242.549 331.01,91.931">
					
				</polygon>
				<polygon opacity="0.19" fill="none" stroke="#525967" stroke-width="3.7889" stroke-miterlimit="10" points="180.933,3.746 
					180.933,3.746 180.933,3.746 180.91,3.754 4.115,78.528 4.115,255.966 180.933,330.74 180.933,330.74 180.933,330.74 
					180.947,330.733 357.734,255.959 357.734,78.521">
					 	
				</polygon>

				<animate id="anim1a" attributeName="opacity"  from=".72" to=".2" begin="0s; anim1b.end" dur="2.4s" />
				<animate id="anim1b" attributeName="opacity"  from=".2" to=".72" begin="anim1a.end" dur="2.4s"/>
			</g>
		</g>
	</g>
</switch>
</svg>
