<?xml version="1.0" encoding="utf-8"?>

<svg version="1.1" id="layer-1" 
	 xmlns="http://www.w3.org/2000/svg" xmlns:xlink="http://www.w3.org/1999/xlink" x="0px" y="0px" width="96.5px" height="20.5px"
	 viewBox="0 0 96.5 20.5" enable-background="new 0 0 96.5 20.5" xml:space="preserve">

	<g>
		<g>
			<path id="WordPress__x28_alt_x29__2_" fill="#2D313C" d="M200.126,421.057c7.506-14,22.56-23.153,39.916-23.153
				c11.235,0,21.502,4.788,29.388,11.546c-2.253-0.437-4.713,0.054-7.189,1.471c-5.799,3.326-7.695,12.74-0.176,17.468
				c4.696,2.936,6.367,10.283,6.211,14.771c-0.155,4.495-10.918,25.138-10.918,25.138l-10.479-35.979c0,0-0.36-2.524-0.36-3.252
				c0-0.918,0.303-2.042,0.869-2.685c0.391-0.427,0.985-1.324,1.689-1.324h4.966v-4h-27v4h0.838c0.884,0,1.748,1.189,2.582,2.043
				c0.985,1.019,2.228,4.849,3.729,8.821l3.927,12.934l-8.461,19.552l-9.283-39.077c0,0,0.274-2.678,0.836-3.133
				c0.365-0.313,0.929-1.14,1.577-1.14h0.255v-4L200.126,421.057L200.126,421.057z M205.419,427.848c0,0-2.185-2.791-4.502-2.791
				h-2.353c-2.27,5-3.522,11.716-3.522,17.869c0,18.515,11.354,34.394,27.528,41.16L205.419,427.848z M278.768,420.7
				c0.854,4.057,0.678,8.979-0.99,14.393c-4.351,14.087-15.121,39.429-19.291,49.081c15.652-6.988,26.557-22.59,26.557-40.729
				C285.042,435.138,282.748,427.362,278.768,420.7z M240.952,458.737l-11.507,28.104c3.398,0.814,6.945,1.258,10.597,1.258
				c3.781,0,7.449-0.469,10.957-1.34L240.952,458.737z"/>
			<path id="WordPress_2_" fill="#2D313C" d="M-174.722,469.5c0,24.855,20.145,45,45,45c24.85,0,45-20.145,45-45
				c0-24.849-20.15-45-45-45C-154.578,424.5-174.722,444.651-174.722,469.5z M-171.253,469.5c0-6.021,1.297-11.735,3.598-16.903
				l19.811,54.278C-161.697,500.15-171.253,485.938-171.253,469.5z M-129.722,511.031c-4.075,0-8.014-0.594-11.734-1.687
				l12.465-36.207l12.766,34.973c0.082,0.206,0.185,0.389,0.293,0.564C-120.246,510.199-124.888,511.031-129.722,511.031z
				 M-96.156,468.721c2.368-5.925,3.16-10.662,3.16-14.874c0-1.528-0.102-2.947-0.287-4.272c3.242,5.919,5.087,12.704,5.087,19.927
				c0,15.324-8.302,28.698-20.644,35.893L-96.156,468.721z M-105.113,455.949c1.577,2.765,3.428,6.319,3.428,11.455
				c0,3.557-1.059,8.027-3.161,13.428l-4.144,13.836l-15.012-44.638c2.506-0.137,4.752-0.396,4.752-0.396
				c2.238-0.266,1.973-3.549-0.26-3.426c0,0-6.73,0.531-11.072,0.531c-4.082,0-10.936-0.531-10.936-0.531
				c-2.24-0.123-2.499,3.296-0.267,3.426c0,0,2.122,0.26,4.362,0.396l6.464,17.729l-9.086,27.252l-15.127-44.98
				c2.505-0.136,4.757-0.396,4.757-0.396c2.24-0.266,1.967-3.549-0.266-3.426c0,0-6.724,0.531-11.072,0.531
				c-0.777,0-1.693-0.021-2.67-0.048c7.428-11.276,20.193-18.725,34.699-18.725c10.813,0,20.657,4.137,28.044,10.908
				c-0.178-0.014-0.355-0.035-0.532-0.035c-4.09,0-6.978,3.551-6.978,7.367C-109.188,449.635-107.214,452.53-105.113,455.949z"/>
			<path id="Twitter__x28_alt_x29__2_" fill="#2D313C" d="M159.624,439.564c5.056-0.417,8.481-2.716,9.803-5.833
				c-1.823,1.119-7.483,2.341-10.608,1.178c-0.154-0.734-0.324-1.433-0.492-2.063c-2.383-8.746-10.537-15.792-19.082-14.94
				c0.691-0.279,1.393-0.539,2.092-0.772c0.939-0.337,6.459-1.234,5.59-3.183c-0.734-1.713-7.475,1.295-8.744,1.688
				c1.676-0.63,4.447-1.714,4.744-3.64c-2.568,0.352-5.088,1.565-7.035,3.331c0.703-0.757,1.236-1.679,1.351-2.672
				c-6.851,4.374-10.851,13.192-14.087,21.749c-2.543-2.463-4.795-4.403-6.815-5.48c-5.67-3.041-12.448-6.213-23.092-10.164
				c-0.326,3.521,1.742,8.203,7.698,11.316c-1.291-0.173-3.649,0.213-5.539,0.665c0.77,4.034,3.279,7.356,10.08,8.964
				c-3.106,0.205-4.713,0.912-6.168,2.436c1.414,2.806,4.867,6.107,11.078,5.43c-6.903,2.977-2.813,8.489,2.806,7.667
				c-9.586,9.901-24.701,9.176-33.381,0.894c22.662,30.879,71.922,18.262,79.262-11.48c5.5,0.047,8.733-1.905,10.737-4.058
				C166.65,441.134,162.061,440.578,159.624,439.564z"/>
			<path id="Twitter_2_" fill="#2D313C" d="M12.336,14.979H7.689c-0.646,0-1.197-0.226-1.647-0.679
				c-0.453-0.455-0.677-1.006-0.677-1.655v-1.653h6.624c0.598,0,1.111-0.216,1.539-0.642c0.427-0.43,0.643-0.944,0.643-1.543
				c0-0.599-0.215-1.112-0.644-1.541c-0.429-0.427-0.944-0.642-1.545-0.642H5.364V3.207c0-0.646-0.23-1.2-0.688-1.662
				C4.219,1.083,3.667,0.852,3.026,0.852c-0.658,0-1.219,0.229-1.675,0.681C0.893,1.985,0.665,2.544,0.665,3.209v9.438
				c0,1.942,0.687,3.601,2.06,4.977c1.375,1.38,3.03,2.066,4.968,2.066h4.646c0.646,0,1.199-0.231,1.66-0.693
				c0.461-0.461,0.69-1.015,0.69-1.661s-0.229-1.199-0.69-1.662C13.537,15.212,12.982,14.979,12.336,14.979z"/>
			<path id="Skype_2_" fill="#2D313C" d="M28.698,476.016c0.336-2.125,0.514-4.299,0.514-6.518
				c0-23.063-18.694-41.756-41.757-41.756c-2.213,0-4.393,0.182-6.517,0.514c-3.846-2.379-8.385-3.756-13.248-3.756
				c-13.936,0-25.233,11.296-25.233,25.232c0,4.862,1.378,9.397,3.757,13.252c-0.329,2.128-0.51,4.295-0.51,6.514
				c0,23.063,18.693,41.752,41.751,41.752c2.215,0,4.395-0.171,6.519-0.506c3.85,2.375,8.385,3.756,13.248,3.756
				c13.939,0,25.235-11.299,25.235-25.236C32.457,484.4,31.081,479.865,28.698,476.016z M7.28,488.488
				c-1.768,2.543-4.361,4.529-7.752,5.959c-3.398,1.432-7.413,2.145-12.051,2.145c-5.558,0-10.16-0.972-13.791-2.936
				c-2.575-1.406-4.669-3.293-6.279-5.646c-1.613-2.354-2.431-4.659-2.431-6.907c0-1.325,0.506-2.479,1.49-3.42
				c0.995-0.946,2.276-1.422,3.788-1.422c1.239,0,2.303,0.373,3.17,1.112c0.859,0.739,1.58,1.813,2.17,3.23
				c0.707,1.644,1.476,3.017,2.293,4.111c0.813,1.082,1.955,1.986,3.435,2.693c1.464,0.709,3.412,1.063,5.851,1.063
				c3.336,0,6.032-0.721,8.096-2.145c2.074-1.437,3.071-3.185,3.071-5.297c0-1.685-0.538-3.023-1.639-4.066
				c-1.11-1.056-2.547-1.861-4.327-2.422c-1.788-0.567-4.189-1.169-7.199-1.803c-4.039-0.881-7.419-1.908-10.154-3.086
				c-2.74-1.185-4.922-2.802-6.539-4.845c-1.621-2.063-2.43-4.627-2.43-7.664c0-2.896,0.854-5.485,2.562-7.739
				c1.707-2.261,4.177-3.99,7.397-5.195c3.209-1.205,6.986-1.807,11.314-1.807c3.461,0,6.455,0.399,8.989,1.196
				c2.528,0.804,4.634,1.862,6.317,3.191c1.676,1.326,2.906,2.725,3.687,4.193c0.778,1.472,1.173,2.909,1.173,4.313
				c0,1.305-0.507,2.488-1.491,3.525c-0.985,1.039-2.246,1.567-3.718,1.563c-1.327,0-2.367-0.306-3.09-0.954
				c-0.703-0.627-1.441-1.625-2.24-3.016c-1.008-1.941-2.218-3.453-3.624-4.535c-1.369-1.061-3.628-1.614-6.771-1.607
				c-2.908,0-5.235,0.595-6.991,1.757c-1.767,1.181-2.612,2.551-2.616,4.155c0.004,1.006,0.292,1.854,0.874,2.579
				c0.591,0.732,1.413,1.366,2.47,1.901c1.057,0.543,2.133,0.963,3.213,1.265c1.094,0.311,2.908,0.758,5.429,1.352
				c3.162,0.682,6.03,1.442,8.608,2.272c2.571,0.834,4.767,1.84,6.58,3.038c1.828,1.195,3.258,2.718,4.277,4.559
				c1.026,1.843,1.538,4.094,1.538,6.741C9.939,483.082,9.05,485.949,7.28,488.488z"/>
			<path id="Quora" fill="#2D313C" d="M-113.706,139.044c11.393-7.146,18.984-19.921,18.984-34.497
				c0-22.393-17.91-40.547-40.002-40.547c-22.092,0-39.998,18.154-39.998,40.547c0,22.395,17.906,40.547,39.998,40.547
				c3.25,0,6.406-0.402,9.43-1.145c3.797,6.908,9.582,11.797,21.861,9.46v-6.873C-103.433,146.536-111.308,144.557-113.706,139.044z
				 M-113.985,109.908c0,6.77-2.154,12.914-5.654,17.453c-4.396-4.68-11.287-8.527-20.031-8.037v0.822v7.146
				c0,0,5.932,0.234,9.992,7.213c-1.521,0.447-3.105,0.689-4.738,0.689c-11.285,0-20.43-11.32-20.43-25.288
				c0-1.792,0-8.654,0-10.447c0-13.967,9.145-25.289,20.43-25.289s20.432,11.322,20.432,25.289
				C-113.985,101.254-113.985,108.116-113.985,109.908z"/>
			<path id="LinkedIn__x28_alt_x29__3_" fill="#2D313C" d="M-361.801,295.479h-76.703c-3.672,0-6.65,2.888-6.65,6.447v77.103
				c0,3.563,2.979,6.45,6.65,6.45h76.703c3.674,0,6.646-2.889,6.646-6.45v-77.103C-355.154,298.365-358.127,295.479-361.801,295.479
				z M-417.869,370.814h-13.598V330.18h13.598V370.814z M-424.666,324.629h-0.092c-4.559,0-7.516-3.117-7.516-7.022
				c0-3.982,3.043-7.017,7.693-7.017c4.652,0,7.512,3.033,7.602,7.017C-416.979,321.512-419.928,324.629-424.666,324.629z
				 M-368.85,370.814h-13.594v-21.74c0-5.465-1.971-9.191-6.887-9.191c-3.76,0-5.992,2.517-6.973,4.943
				c-0.363,0.867-0.453,2.08-0.453,3.293v22.695h-13.592c0,0,0.178-36.822,0-40.636h13.592v5.763
				c1.805-2.769,5.029-6.718,12.25-6.718c8.947,0,15.656,5.806,15.656,18.291L-368.85,370.814L-368.85,370.814z M-396.844,336.068
				c0.025-0.037,0.057-0.084,0.088-0.127v0.127H-396.844z"/>
			<path id="LinkedIn_3_" fill="#2D313C" d="M71.568,12.307v6.965h-4.037v-6.499c0-1.632-0.584-2.747-2.046-2.747
				c-1.116,0-1.78,0.751-2.072,1.477c-0.106,0.261-0.134,0.622-0.134,0.986v6.782H59.24c0,0,0.054-11.007,0-12.146h4.039v1.722
				c-0.009,0.013-0.02,0.026-0.027,0.039h0.027V8.847c0.536-0.827,1.494-2.007,3.64-2.007C69.577,6.839,71.568,8.576,71.568,12.307z
				 M55.015,1.27c-1.381,0-2.285,0.906-2.285,2.099c0,1.165,0.877,2.099,2.232,2.099h0.026c1.408,0,2.285-0.934,2.285-2.099
				C57.247,2.175,56.397,1.27,55.015,1.27z M52.97,19.271h4.037V7.125H52.97V19.271z"/>
			<path id="last.fm_3_" fill="#2D313C" d="M-258.865,552.382c-9.373-0.038-14.369-4.653-17.84-12.786l-0.99-2.221l-8.563-19.645
				c-2.834-6.953-9.881-11.651-17.826-11.651c-10.752,0-19.475,8.783-19.475,19.615c0,10.833,8.723,19.615,19.475,19.615
				c7.5,0,14.025-4.271,17.277-10.53l3.465,8.037c-4.914,6.032-12.385,9.875-20.742,9.875c-14.809,0-26.814-12.079-26.814-26.997
				c0-14.909,12.006-27.003,26.814-27.003c11.178,0,20.201,6.009,24.785,16.656c0.352,0.826,4.848,11.423,8.775,20.44
				c2.432,5.583,4.502,9.284,11.227,9.514c6.607,0.229,11.141-3.819,11.141-8.938c0-5-3.457-6.201-9.295-8.156
				c-10.488-3.48-15.908-6.978-15.908-15.354c0-8.171,5.521-13.619,14.494-13.619c5.846,0,10.064,2.617,12.986,7.839l-5.734,2.948
				c-2.162-3.046-4.541-4.246-7.572-4.246c-4.213,0-7.215,2.948-7.215,6.871c0,5.567,4.943,6.409,11.865,8.694
				c9.309,3.053,13.637,6.541,13.637,15.25C-240.898,545.738-248.691,552.396-258.865,552.382z"/>
			<path id="Dribbble_3_" fill="#2D313C" d="M34.914,0.852c-5.203,0-9.42,4.217-9.42,9.42c0,5.201,4.217,9.418,9.419,9.418
				s9.419-4.218,9.419-9.418C44.332,5.068,40.115,0.852,34.914,0.852z M40.684,5.735c0.919,1.167,1.495,2.612,1.567,4.19
				C41.188,9.7,40.183,9.59,39.246,9.59l0,0h-0.007c-0.753,0-1.461,0.068-2.128,0.187c-0.163-0.397-0.327-0.779-0.492-1.145
				C38.104,7.98,39.53,7.054,40.684,5.735z M34.914,2.922c1.733,0,3.323,0.606,4.582,1.615c-0.963,1.152-2.235,1.989-3.608,2.578
				c-0.966-1.866-1.898-3.202-2.536-4.019C33.856,2.985,34.376,2.922,34.914,2.922z M31.667,3.688
				c0.51,0.603,1.531,1.928,2.622,3.997c-2.218,0.66-4.452,0.816-5.804,0.815c-0.038,0-0.077,0-0.113,0H28.37
				c-0.227,0-0.423-0.004-0.586-0.009C28.311,6.381,29.756,4.634,31.667,3.688z M27.564,10.272c0-0.035,0.001-0.07,0.003-0.106
				c0.21,0.007,0.479,0.014,0.803,0.014h0.002c1.477-0.009,4.057-0.133,6.67-0.957c0.143,0.312,0.284,0.635,0.423,0.972
				c-1.745,0.583-3.12,1.513-4.136,2.44c-0.979,0.892-1.64,1.774-2.027,2.364C28.22,13.719,27.565,12.072,27.564,10.272z
				 M34.914,17.62c-1.636,0-3.144-0.541-4.366-1.448c0.26-0.428,0.817-1.25,1.704-2.098c0.913-0.876,2.174-1.776,3.819-2.313
				c0.559,1.567,1.065,3.361,1.45,5.378C36.709,17.449,35.832,17.62,34.914,17.62z M39.072,16.315
				c-0.373-1.824-0.842-3.469-1.356-4.938c0.477-0.067,0.979-0.106,1.507-0.106h0.019h0.001h0.001c0.876,0,1.84,0.108,2.884,0.347
				C41.767,13.56,40.642,15.232,39.072,16.315z"/>
			<path id="Github_1_" fill="#2D313C" d="M94.513,0.908c-1.684,1.053-3.42,0.166-4.672,0c-5.527-0.728-7.284,5.72-3.258,8.305
				c-1.037,0.538-0.969,3.271,0.143,3.661c-2.617,0.299-3.103,3.986-1.699,5.489c1.706,1.829,6.956,1.708,8.495,0
				c1.075-1.191,1.225-3.651,0.283-4.784c-0.858-1.036-5.164-1.191-5.097-2.816c0.047-1.135,1.604-0.956,2.549-1.408
				c1.778-0.85,2.822-3.394,2.124-5.349c0.396-0.074,0.735-0.206,1.133-0.281L94.513,0.908L94.513,0.908z M87.717,6.821
				c-2.072-4.515,4.765-4.191,2.69,0C89.727,7.325,88.389,7.375,87.717,6.821z M91.541,15.689c0.184,2.024-3.916,2.114-4.39,0.704
				c-0.399-1.188,0.098-1.523,1.273-1.831C89.757,14.216,91.417,14.336,91.541,15.689z"/>
			<path id="Behance_1_" fill="#2D313C" d="M-173.645,348.404h-22.553v-5.603h22.553V348.404z M-211.209,371.373
				c1.455,2.254,2.182,4.99,2.182,8.202c0,3.323-0.82,6.303-2.488,8.937c-1.061,1.742-2.379,3.214-3.961,4.398
				c-1.783,1.37-3.895,2.309-6.32,2.812c-2.434,0.503-5.068,0.757-7.906,0.757h-25.221v-56h27.045
				c6.818,0.111,11.65,2.087,14.504,5.966c1.713,2.379,2.561,5.232,2.561,8.551c0,3.424-0.859,6.163-2.588,8.244
				c-0.961,1.167-2.383,2.229-4.264,3.187C-214.816,367.469-212.654,369.111-211.209,371.373z M-242.008,362.557h11.85
				c2.434,0,4.404-0.463,5.92-1.388c1.514-0.925,2.27-2.566,2.27-4.924c0-2.604-1-4.334-3.008-5.166
				c-1.725-0.578-3.932-0.876-6.609-0.876h-10.422L-242.008,362.557L-242.008,362.557z M-220.826,378.776
				c0-2.91-1.189-4.921-3.563-5.999c-1.326-0.613-3.199-0.928-5.6-0.949h-12.02v14.924h11.834c2.43,0,4.313-0.318,5.67-0.982
				C-222.055,384.549-220.826,382.225-220.826,378.776z M-165.279,369.667c0.273,1.832,0.395,4.49,0.346,7.964h-29.205
				c0.162,4.033,1.553,6.853,4.193,8.465c1.59,1.013,3.52,1.506,5.781,1.506c2.381,0,4.324-0.604,5.82-1.842
				c0.813-0.656,1.533-1.582,2.154-2.75h10.705c-0.281,2.379-1.57,4.795-3.885,7.25c-3.59,3.898-8.623,5.855-15.086,5.855
				c-5.34,0-10.047-1.65-14.131-4.938c-4.072-3.298-6.117-8.647-6.117-16.067c0-6.959,1.836-12.285,5.52-15.992
				c3.697-3.715,8.469-5.563,14.35-5.563c3.486,0,6.629,0.622,9.432,1.876c2.797,1.254,5.105,3.229,6.926,5.94
				C-166.832,363.758-165.771,366.52-165.279,369.667z M-175.814,370.711c-0.197-2.787-1.129-4.898-2.803-6.34
				c-1.664-1.445-3.74-2.172-6.217-2.172c-2.697,0-4.777,0.775-6.258,2.301c-1.488,1.522-2.416,3.592-2.795,6.211H-175.814z"/>
		</g>
	</g>
</svg>
