<?xml version="1.0" encoding="utf-8"?>

<svg version="1.1" id="layer-1" xmlns="http://www.w3.org/2000/svg" xmlns:xlink="http://www.w3.org/1999/xlink" x="0px" y="0px" width="460px" height="16px"
	 viewBox="0 0 460 16" enable-background="new 0 0 460 16" xml:space="preserve">

	
	<g>
		<g>
			<path fill="#D16940" d="M17.314,7.932L17.314,7.932L12.52-0.135H4.794L0,7.932v0.001L4.794,16h7.726L17.314,7.932z M5.976,7.933
				c0-1.48,1.2-2.681,2.681-2.681c1.48,0,2.681,1.201,2.681,2.681s-1.201,2.682-2.681,2.682C7.176,10.614,5.976,9.413,5.976,7.933z"
				/>
		</g>
		<g>
			<path fill="#D16940" d="M460,7.932L460,7.932l-4.794-8.066h-7.727l-4.794,8.066v0.001L447.479,16h7.727L460,7.932z
				 M448.661,7.933c0-1.48,1.201-2.681,2.682-2.681s2.682,1.201,2.682,2.681s-1.201,2.682-2.682,2.682S448.661,9.413,448.661,7.933z
				"/>
		</g>
	</g>

</svg>