<svg text-rendering="geometricPrecision" image-rendering="optimizeQuality" shape-rendering="geometricPrecision" xmlns="http://www.w3.org/2000/svg" width="139.77" height="23.417" viewBox="295.139 53.765 139.77 23.417"><path fill-rule="evenodd" clip-rule="evenodd" fill="#a59571" d="M434.908 68.286c-2.92-.637-6-1.532-9.055-1.836-3.93-.39-6.65-.03-10.217.25 1.925 1.025 5.39.508 6.853 1.993-1.69-.215-4.286-.483-5.732-.872-.296-.08-.17-.027-.125-.25h-1.12c-.132-.512-1.238-.117-.873-.498-3.26-.594-7.142-1.173-11.34-.996-.437.02-.84-.222-1.494-.125-1.346.202-2.57.484-4.11.5 1.733 1.09 5.27.378 6.603 1.87-.934.077-1.745-.405-2.743-.126-4.528-.98-9.32-2.46-14.703-2.616-.16.174-.61.054-.623.374-1.177-.495-3.308.47-4.983.624.992.687 3.405.418 4.734.747.365.09 1.105.406.873.75-.18.345-1.098-.42-1.495.123-3.594-.597-7.27-1.545-10.715-1.745-2.22-.126-4.167-.02-6.23.75-.478-.3-.74-.12-1.37.124 1.27.924 6.08.204 5.357 1.87-1.096-.465-3.38-.434-4.486-.873-.146.022-.104.23-.124.375-.29-.034-.286-.333-.125-.5-2.295-.247-2.816-.487-5.234-.746-.183.053.05.16 0 .373-.2-.554-1.79-.446-1.742-.5-.274-3.4-1.146-6.85-1.247-11.96-.193-.265-.674.23-.87.374.027.18.372.042.374.248.037.51-.173-.02-.5.125-.054.443-.192.71.125.998-.63-.12-.067.73-.624 1.12.368 2.002.884 4.516.873 6.48 1.297 1.4 1.972 3.426 2.49 5.607-.472-.688-.81-1.516-1.12-2.367-.38.23.143.592 0 .997-.834-1.16-.85-3.138-2.12-3.863-.138.398-.475.128-.996.498.403 1.757 1.107 3.213 1.745 4.735-1.38.216-.897-1.43-1.995-1.496.148-.454-.273-.997-.623-.997-.45-.545-.524-1.47-1.122-1.87-.63.616.694 2 0 2.742-.296-.517-.07-.823-.623-1.12.677-.064-.035-.167 0-.873-.146.02-.105.227-.125.373-.198-.342-.27-.81-.5-1.12-.23.417-.423.615-.746.124-.148.636.496 1.992.125 2.866-.843-.403-.304-2.188-1.246-2.494-.11-.4.41-.17.374-.498-.638-.28-.68.266-1.247 0 .184 1.61.87 3.357.874 4.735-1.84-.816-2.04-3.055-2.865-5.11-.28.538-.77.78-.376 1.246-1.123-.108-1.125.86-2.367.498-.07.305-.12.07-.5.375-1.162-.316-.39.045-2.242-.126.333.83 2.01 1.254 3.364 1.87.79.358 2.098.733 1.868 1.62.036.497-.587-.15-.624-.374-1.734-.564-4.213-1.312-5.108-3.115-.146.02-.106.228-.125.375-2.514-.18-4.384.587-7.35.747.47-.983 3.55-.437 4.858-.996-3.455-1.265-6.504-.763-9.47-.996-.145.02-.104.227-.124.373-.27-.448-.216-.097-.623-.497-.693.78-1.793.146-3.115.373-.184.055.05.16 0 .374-1.78-.198-3.953.214-6.354.375.794-.868 3.955-.45 5.608-.873-2.776-.857-4.387-1.13-7.6-.873-.698-.416-2.147-.307-2.243.125-.312-.104-.49-.34-.872-.374-.42.112-.015.28-.25.5-.646-.676-1.275-.022-2.12.248-.165-.697-2.406.476-3.24.5-.184.054.05.16 0 .373-1.36-.405-4.005.78-5.854.748 1.8-.982 4.753-.81 6.727-1.62-.763-.23-2.602-.116-3.114-.374-.442.013.264.412-.125.373-2.058-.308-4.133-.19-6.23-.373-.104-.027-.266.153-.26.273.053.023.1.056.136.1-.096-.003-.134-.046-.137-.1-.502-.215-1.758.372-2.73-.023-.01.178-.02.352.126.374-.215.05-.634-.008-.873-.25-.892.182-1.753.354-2.613.524.122.658-.066 1.32 0 1.994 1.606.075 3.444.61 4.98.723 1.722.124 3.61.127 5.357 0 2.298-.17 4.554-1.177 6.978-1.373 2.157-.172 4.568.697 6.23.873 4.18.444 8.396-.88 12.46.125 1.184.532 2.365.747 3.613.874 2.716.27 5.475-.72 7.6-.5 2.826.29 6.794 4.267 9.097 2.242.41.962 1.642.268 1.994-.25.365.603 1.385.07 1.744-.125.702 1.154 1.798.482 2.368-.5.354.985 1.813 1.67 2.866.874 1.21 1.99 1.54 5.522 4.61 5.234-1.744-1.827-2.246-4.898-3.49-7.227 1.42.243 2.842-.505 4.237-.498 1.907.008 3.748.76 5.483.87 1.053.068 2.108.075 3.115 0 2.014-.147 3.837-1.163 6.105-1.37 1.35-.124 2.806.394 4.236.5 4.033.29 7.763-.466 10.59-.75 2.42-.243 4.477.67 7.352.873 1.753.123 3.408.232 5.233.125 2.297-.135 4.81-.972 6.978-.874 2.55.116 4.988 1.11 7.6 1.246 3.667.196 6.25-.018 9.345-.373.98-.113 2.01-.09 3.074 0-.03-.472.014-.94.006-1.41z"/></svg>